<svg width="90" height="90" viewBox="0 0 90 90" fill="none" xmlns="http://www.w3.org/2000/svg">
<path d="M30.5917 9.53685L29.4792 8.48302L26.9312 9.6776L27.0178 11.2123L25.7149 11.8232L25.4316 4.2794L26.3357 3.85624L31.8792 8.93414L30.5917 9.53685ZM26.8644 8.5155L28.6356 7.68542L26.7137 5.86376L26.8644 8.5155Z" fill="#EBDFC8"/>
<path d="M31.0918 2.12486L32.7141 1.68456C33.121 1.57268 33.4566 1.52305 33.7228 1.53117C33.9889 1.53929 34.2244 1.58351 34.4292 1.662C34.6602 1.76035 34.8623 1.91463 35.0356 2.12486C35.2088 2.33418 35.3333 2.57779 35.4082 2.85298C35.4903 3.15434 35.4939 3.43223 35.4181 3.68396C35.3432 3.93659 35.2106 4.15674 35.0211 4.34171C35.2079 4.32547 35.3784 4.33359 35.5345 4.36517C35.6915 4.39765 35.8422 4.44817 35.9893 4.52126C36.1896 4.63494 36.3574 4.78923 36.4954 4.9805C36.6317 5.17269 36.7318 5.38652 36.7959 5.62201C36.8699 5.88998 36.8897 6.15073 36.8554 6.40337C36.8211 6.656 36.7354 6.88788 36.5965 7.10171C36.4368 7.34262 36.2338 7.54201 35.9883 7.70081C35.7429 7.85871 35.4398 7.98683 35.0789 8.08517L32.8765 8.68517L31.0918 2.12486ZM32.6536 2.8205L33.111 4.50141L33.4747 4.40306C33.8049 4.32005 34.0323 4.1793 34.1568 3.979C34.2822 3.7796 34.3083 3.54592 34.2344 3.27704C34.1658 3.0217 34.0259 2.84486 33.8166 2.74742C33.6064 2.64997 33.3438 2.64005 33.0271 2.71945L32.6536 2.8205ZM33.379 5.48487L33.8717 7.29389L34.422 7.14322C34.6332 7.09359 34.8028 7.03404 34.9291 6.96818C35.0554 6.90231 35.1619 6.82201 35.2485 6.72818C35.3514 6.6154 35.4208 6.48367 35.4569 6.33299C35.4939 6.18321 35.4894 6.02532 35.4452 5.86111C35.392 5.69239 35.3053 5.55615 35.1862 5.45148C35.0662 5.34772 34.9246 5.27825 34.7604 5.24577C34.6431 5.22863 34.5195 5.22682 34.3895 5.24126C34.2596 5.25569 34.0801 5.29359 33.85 5.35584L33.379 5.48487Z" fill="#EBDFC8"/>
<path d="M41.727 1.19463L40.2094 1.3832L40.9051 6.99615L39.5905 7.15855L38.8948 1.54561L37.3781 1.73328L37.2383 0.600944L41.5863 0.0613937L41.727 1.19463Z" fill="#EBDFC8"/>
<path d="M50.3925 0.257143L50.3113 1.39489L48.0349 1.23339L47.6325 6.8734L46.3125 6.77956L46.7934 0L50.3925 0.257143Z" fill="#EBDFC8"/>
<path d="M52.4313 0.558556L54.3666 0.966376C54.8114 1.06021 55.1534 1.1739 55.3925 1.30743C55.6325 1.44187 55.8382 1.62051 56.0132 1.84517C56.191 2.09059 56.3083 2.36397 56.3669 2.66442C56.4246 2.96397 56.421 3.27435 56.3516 3.59375C56.2911 3.88518 56.1855 4.15135 56.0385 4.39135C55.8905 4.63135 55.7074 4.82172 55.4899 4.96247C55.2562 5.11405 54.991 5.2115 54.6896 5.2521C54.3901 5.2918 54.0526 5.27285 53.6809 5.19526L52.8436 5.01751L52.323 7.48068L51.0273 7.20729L52.4313 0.558556ZM53.4923 1.94803L53.08 3.90322L53.6078 4.0142C53.8478 4.06473 54.0292 4.08638 54.1528 4.07736C54.2764 4.06924 54.3919 4.03766 54.5001 3.98443C54.6319 3.92127 54.7428 3.82653 54.8304 3.70022C54.9197 3.573 54.9846 3.43405 55.0234 3.28247C55.055 3.12999 55.0523 2.97931 55.0144 2.83224C54.9756 2.68518 54.9098 2.55706 54.8141 2.44698C54.7284 2.35856 54.6183 2.28187 54.4884 2.216C54.3549 2.14924 54.1726 2.0933 53.9416 2.04367L53.4923 1.94803Z" fill="#EBDFC8"/>
<path d="M58.299 1.87768L59.7453 2.43347L60.1179 6.25543L62.7128 3.57753L64.0626 4.09723L58.6788 9.30687L57.3281 8.78717L58.8944 7.35889L58.299 1.87768Z" fill="#EBDFC8"/>
<path d="M66.0433 5.1113L70.6421 7.90649L67.1134 13.7152L65.981 13.0268L68.9179 8.19341L66.5838 6.77596L63.646 11.6085L62.5137 10.9209L66.0433 5.1113Z" fill="#EBDFC8"/>
<path d="M73.0606 9.70378L77.0648 13.2993L72.5229 18.3564L71.5367 17.4713L75.3153 13.2632L73.2834 11.4379L69.5048 15.647L68.5195 14.7618L73.0606 9.70378Z" fill="#EBDFC8"/>
<path d="M80.4702 30.6217L81.524 29.511L80.3322 26.9612L78.7983 27.0469L78.1875 25.7432L85.7304 25.4644L86.1535 26.3694L81.072 31.9083L80.4702 30.6217ZM81.4943 26.8963L82.3234 28.6674L84.1451 26.7474L81.4943 26.8963Z" fill="#EBDFC8"/>
<path d="M87.8787 31.1135L88.3199 32.7357C88.43 33.1417 88.4823 33.4783 88.4724 33.7454C88.4642 34.0115 88.4209 34.247 88.3415 34.4509C88.2432 34.6819 88.0889 34.8849 87.8787 35.0581C87.6694 35.2314 87.4257 35.355 87.1506 35.4308C86.8483 35.512 86.5713 35.5156 86.3187 35.4398C86.066 35.3649 85.8477 35.2323 85.6609 35.0437C85.6772 35.2305 85.669 35.401 85.6375 35.5571C85.6059 35.7132 85.5527 35.8648 85.4814 36.0109C85.3659 36.2112 85.2125 36.38 85.0203 36.5171C84.829 36.6524 84.6152 36.7535 84.3797 36.8175C84.1109 36.8906 83.8501 36.9105 83.5984 36.8762C83.3457 36.8428 83.1139 36.7562 82.8991 36.6172C82.66 36.4575 82.4606 36.2554 82.3018 36.01C82.1439 35.7637 82.0158 35.4615 81.9166 35.1006L81.3184 32.8981L87.8787 31.1135ZM84.5205 33.3998L82.7096 33.8915L82.8603 34.4419C82.9099 34.6539 82.9686 34.8227 83.0345 34.949C83.1003 35.0753 83.1788 35.1818 83.2754 35.2693C83.3881 35.3721 83.519 35.4425 83.6696 35.4786C83.8212 35.5156 83.9782 35.5111 84.1406 35.466C84.3103 35.4127 84.4465 35.327 84.5521 35.2061C84.6558 35.0861 84.7244 34.9445 84.7578 34.7802C84.7767 34.6639 84.7776 34.5384 84.7623 34.4094C84.7487 34.2786 84.7108 34.099 84.6486 33.8708L84.5205 33.3998ZM87.1839 32.6753L85.5039 33.1318L85.6014 33.4954C85.6835 33.8248 85.8251 34.053 86.0254 34.1784C86.2248 34.3039 86.4585 34.3291 86.7274 34.256C86.9827 34.1857 87.1596 34.0467 87.2579 33.8374C87.3545 33.6272 87.3653 33.3646 87.2859 33.0479L87.1839 32.6753Z" fill="#EBDFC8"/>
<path d="M88.8029 41.7501L88.6161 40.2334L83.0023 40.9264L82.8398 39.6109L88.4528 38.9188L88.2651 37.4003L89.3984 37.2605L89.9361 41.6094L88.8029 41.7501Z" fill="#EBDFC8"/>
<path d="M89.7345 50.4335L88.5958 50.3514L88.761 48.075L83.1191 47.6671L83.2148 46.3453L89.9943 46.8353L89.7345 50.4335Z" fill="#EBDFC8"/>
<path d="M89.4326 52.469L89.0239 54.4044C88.9292 54.8492 88.8146 55.192 88.6802 55.4311C88.5457 55.6702 88.3662 55.876 88.1424 56.0519C87.897 56.2296 87.6227 56.3469 87.3232 56.4056C87.0227 56.4624 86.7123 56.4579 86.3938 56.3902C86.1015 56.3271 85.8353 56.2224 85.5953 56.0735C85.3562 55.9265 85.1659 55.7442 85.0242 55.5268C84.8717 55.2931 84.777 55.026 84.7364 54.7256C84.6949 54.4251 84.7156 54.0886 84.7932 53.7169L84.971 52.8796L82.5078 52.3581L82.783 51.0615L89.4326 52.469ZM88.0414 53.5301L86.088 53.115L85.9752 53.6438C85.9247 53.8829 85.903 54.0642 85.9129 54.1878C85.921 54.3123 85.9526 54.4278 86.0059 54.5361C86.0672 54.6678 86.1629 54.7779 86.2901 54.8672C86.4164 54.9566 86.5553 55.0206 86.7078 55.0594C86.8585 55.0919 87.0092 55.0892 87.1571 55.0504C87.3042 55.0125 87.4332 54.9457 87.5433 54.851C87.6308 54.7653 87.7075 54.657 87.7743 54.5253C87.8402 54.3935 87.8979 54.2113 87.9475 53.9794L88.0414 53.5301Z" fill="#EBDFC8"/>
<path d="M88.1107 58.34L87.5531 59.7836L83.732 60.1545L86.4072 62.7512L85.8848 64.1009L80.6797 58.7127L81.2021 57.3638L82.6277 58.931L88.1107 58.34Z" fill="#EBDFC8"/>
<path d="M84.8705 66.0795L82.0726 70.6756L76.2656 67.1424L76.9559 66.0101L81.7865 68.9505L83.2067 66.6173L78.3751 63.6759L79.0644 62.5454L84.8705 66.0795Z" fill="#EBDFC8"/>
<path d="M80.2728 73.0928L76.6755 77.0934L71.6211 72.5478L72.5062 71.5634L76.7116 75.3448L78.5378 73.3147L74.3324 69.5324L75.2175 68.5472L80.2728 73.0928Z" fill="#EBDFC8"/>
<path d="M59.3635 80.4804L60.4751 81.5369L63.024 80.3451L62.9383 78.8103L64.242 78.2013L64.5163 85.7442L63.6114 86.1664L58.0742 81.0831L59.3635 80.4804ZM63.0899 81.5054L61.316 82.3354L63.236 84.158L63.0899 81.5054Z" fill="#EBDFC8"/>
<path d="M58.8692 87.8889L57.2461 88.3283C56.84 88.4384 56.5035 88.4907 56.2364 88.4817C55.9712 88.4717 55.7348 88.4275 55.5309 88.3499C55.299 88.2507 55.0987 88.0964 54.9245 87.8862C54.7522 87.6778 54.6286 87.4333 54.5528 87.1581C54.4707 86.8567 54.468 86.5788 54.5438 86.3253C54.6187 86.0735 54.7513 85.8543 54.9399 85.6684C54.7549 85.6838 54.5826 85.6766 54.4265 85.6441C54.2704 85.6134 54.1188 85.5611 53.9718 85.488C53.7733 85.3725 53.6036 85.22 53.4674 85.0278C53.3312 84.8366 53.2301 84.6227 53.1669 84.3863C53.093 84.1174 53.074 83.8567 53.1083 83.6041C53.1408 83.3532 53.2283 83.1214 53.3654 82.9066C53.5278 82.6666 53.73 82.4672 53.9754 82.3093C54.2208 82.1505 54.523 82.0233 54.8857 81.925L57.0882 81.3268L58.8692 87.8889ZM56.5838 84.5271L56.093 82.7171L55.5417 82.8669C55.3324 82.9174 55.1627 82.9752 55.0355 83.0411C54.9092 83.1069 54.8018 83.1863 54.7161 83.282C54.6115 83.3938 54.5429 83.5247 54.505 83.6762C54.4689 83.8269 54.4734 83.9857 54.5185 84.1472C54.5709 84.3168 54.6575 84.454 54.7775 84.5578C54.8975 84.6624 55.0391 84.731 55.2024 84.7644C55.3197 84.7833 55.4451 84.7833 55.5742 84.7698C55.7032 84.7562 55.8836 84.7184 56.1128 84.6552L56.5838 84.5271ZM57.3083 87.1923L56.8518 85.5114L56.4873 85.6089C56.157 85.691 55.9297 85.8326 55.8051 86.032C55.6797 86.2314 55.6527 86.466 55.7257 86.734C55.7952 86.9902 55.9342 87.1662 56.1453 87.2654C56.3537 87.3629 56.6172 87.3719 56.9339 87.2925L57.3083 87.1923Z" fill="#EBDFC8"/>
<path d="M48.2305 88.8102L49.7481 88.6234L49.0569 83.0095L50.3715 82.848L51.0618 88.4628L52.5793 88.2751L52.7192 89.4083L48.3703 89.9434L48.2305 88.8102Z" fill="#EBDFC8"/>
<path d="M39.5273 89.7367L39.6104 88.599L41.8867 88.7659L42.2991 83.1241L43.62 83.2197L43.1255 90.0002L39.5273 89.7367Z" fill="#EBDFC8"/>
<path d="M37.4923 89.4344L35.5588 89.0239C35.1131 88.9292 34.7711 88.8146 34.5329 88.6801C34.2938 88.5457 34.0872 88.3652 33.913 88.1415C33.7362 87.8952 33.6189 87.6227 33.5612 87.3213C33.5034 87.0209 33.5088 86.7114 33.5765 86.392C33.6388 86.1006 33.7443 85.8344 33.8923 85.5953C34.0412 85.3544 34.2243 85.1649 34.4409 85.0233C34.6746 84.8717 34.9416 84.777 35.2421 84.7355C35.5416 84.6967 35.8791 84.7156 36.2499 84.7941L37.0881 84.9728L37.6114 82.5105L38.907 82.7866L37.4923 89.4344ZM36.434 88.0431L36.8499 86.0897L36.3221 85.9761C36.0821 85.9255 35.9016 85.9039 35.7771 85.9138C35.6535 85.9219 35.538 85.9526 35.4288 86.0067C35.2971 86.0681 35.1879 86.1619 35.0977 86.2891C35.0075 86.4155 34.9434 86.5553 34.9046 86.7078C34.8721 86.8603 34.8749 87.0101 34.9127 87.1571C34.9506 87.3033 35.0174 87.4332 35.1121 87.5433C35.1979 87.6308 35.3061 87.7084 35.4379 87.7743C35.5696 87.8401 35.7518 87.8988 35.9837 87.9475L36.434 88.0431Z" fill="#EBDFC8"/>
<path d="M31.6254 88.1046L30.1827 87.5461L29.8146 83.7241L27.217 86.3975L25.8672 85.876L31.2582 80.6736L32.608 81.196L31.0398 82.6206L31.6254 88.1046Z" fill="#EBDFC8"/>
<path d="M23.8912 84.8592L19.2969 82.0576L22.8355 76.2543L23.9661 76.9427L21.0211 81.7734L23.3534 83.1954L26.2975 78.3656L27.428 79.0549L23.8912 84.8592Z" fill="#EBDFC8"/>
<path d="M16.8788 80.2559L12.8809 76.6559L17.43 71.605L18.4144 72.491L14.6285 76.6929L16.6577 78.5199L20.4427 74.319L21.427 75.2041L16.8788 80.2559Z" fill="#EBDFC8"/>
<path d="M9.51205 59.3541L8.45641 60.4647L9.64649 63.0154L11.1821 62.9297L11.7902 64.2335L4.24648 64.506L3.82422 63.6019L8.91024 58.0656L9.51205 59.3541ZM8.48438 63.0795L7.65701 61.3075L5.83355 63.2257L8.48438 63.0795Z" fill="#EBDFC8"/>
<path d="M2.09786 58.8388L1.65846 57.2166C1.54839 56.8097 1.49786 56.474 1.50688 56.2079C1.51591 55.9399 1.56012 55.7044 1.63771 55.5014C1.73696 55.2713 1.89215 55.0692 2.10147 54.8951C2.3117 54.7227 2.55441 54.5991 2.8305 54.5242C3.13095 54.4412 3.40884 54.4385 3.66148 54.5152C3.91411 54.591 4.13336 54.7236 4.31832 54.9131C4.30298 54.7273 4.3111 54.5558 4.34268 54.3997C4.37426 54.2427 4.42659 54.0921 4.49967 53.9459C4.61426 53.7456 4.76764 53.5778 4.95982 53.4406C5.1511 53.3035 5.36494 53.2033 5.60133 53.1411C5.8702 53.0671 6.13005 53.0473 6.38268 53.0824C6.63441 53.1149 6.8672 53.2024 7.08103 53.3414C7.32193 53.5029 7.52043 53.705 7.67923 53.9513C7.83803 54.1976 7.96434 54.4999 8.06269 54.8608L8.65818 57.0641L2.09786 58.8388ZM2.79441 57.2788L4.47712 56.8241L4.37877 56.4596C4.29666 56.1312 4.15591 55.9029 3.95651 55.7775C3.75711 55.6512 3.52343 55.625 3.25456 55.699C2.99832 55.7676 2.82147 55.9056 2.72313 56.1158C2.62568 56.3252 2.61576 56.5886 2.69335 56.9044L2.79441 57.2788ZM5.46058 56.5579L7.2705 56.0689L7.12073 55.5176C7.07111 55.3056 7.01246 55.1369 6.94659 55.0106C6.88163 54.8842 6.80133 54.7769 6.70659 54.6912C6.59381 54.5874 6.46208 54.5179 6.31141 54.4818C6.16163 54.4412 6.00464 54.4458 5.84043 54.4909C5.67171 54.545 5.53546 54.6307 5.4308 54.7498C5.32524 54.8689 5.25667 55.0115 5.22328 55.1757C5.20614 55.293 5.20434 55.4175 5.21787 55.5465C5.23231 55.6764 5.2702 55.856 5.33246 56.0861L5.46058 56.5579Z" fill="#EBDFC8"/>
<path d="M1.18402 48.2003L1.36988 49.7188L6.98373 49.0322L7.14433 50.3459L1.53048 51.0334L1.71545 52.5519L0.582211 52.6891L0.0507812 48.3393L1.18402 48.2003Z" fill="#EBDFC8"/>
<path d="M0.264361 39.4972L1.40301 39.5811L1.23429 41.8566L6.8752 42.2726L6.77776 43.5935L0 43.0954L0.264361 39.4972Z" fill="#EBDFC8"/>
<path d="M0.566406 37.4807L0.977836 35.5463C1.07257 35.1024 1.18716 34.7595 1.3216 34.5204C1.45513 34.2813 1.63558 34.0747 1.86024 33.9006C2.10656 33.7237 2.37994 33.6064 2.6804 33.5487C2.98085 33.4918 3.29032 33.4964 3.60972 33.5649C3.90205 33.6272 4.16822 33.7327 4.40641 33.8816C4.64641 34.0296 4.83679 34.2127 4.97754 34.4302C5.12912 34.6648 5.22476 34.9318 5.26536 35.2323C5.30596 35.5327 5.28521 35.8684 5.20762 36.241L5.02897 37.0765L7.49123 37.6016L7.21424 38.8982L0.566406 37.4807ZM1.95949 36.4224L3.91288 36.8392L4.02566 36.3114C4.07619 36.0714 4.09784 35.8909 4.08882 35.7673C4.0807 35.6437 4.05002 35.5273 3.99679 35.4191C3.93453 35.2873 3.8398 35.1773 3.71348 35.0879C3.58626 34.9977 3.44822 34.9346 3.29664 34.8949C3.14325 34.8615 2.99348 34.8651 2.84641 34.903C2.69934 34.9409 2.57032 35.0085 2.45934 35.1024C2.37182 35.1881 2.29423 35.2964 2.22836 35.4281C2.1625 35.5598 2.10385 35.7421 2.05513 35.9749L1.95949 36.4224Z" fill="#EBDFC8"/>
<path d="M1.9043 31.597L2.4646 30.1542L6.28656 29.7888L3.61498 27.1885L4.13919 25.8388L9.33709 31.2343L8.81288 32.584L7.38912 31.0141L1.9043 31.597Z" fill="#EBDFC8"/>
<path d="M5.1543 23.8638L7.95851 19.2722L13.7591 22.8144L13.0698 23.945L8.24272 20.9973L6.81896 23.3278L11.6469 26.2764L10.9558 27.4069L5.1543 23.8638Z" fill="#EBDFC8"/>
<path d="M9.76172 16.8578L13.3662 12.8626L18.4135 17.4154L17.5265 18.3998L13.3265 14.6103L11.4977 16.6386L15.6977 20.4272L14.8099 21.4115L9.76172 16.8578Z" fill="#EBDFC8"/>
</svg>
