<svg width="66" height="66" viewBox="0 0 66 66" fill="none" xmlns="http://www.w3.org/2000/svg">
<path d="M22.4364 6.99342L21.6205 6.22061L19.752 7.09664L19.8155 8.22211L18.8601 8.67005L18.6523 3.13795L19.3153 2.82764L23.3805 6.55143L22.4364 6.99342ZM19.7031 6.24442L21.0019 5.6357L19.5926 4.29982L19.7031 6.24442Z" fill="#B6A278"/>
<path d="M22.8047 1.55807L23.9943 1.23518C24.2928 1.15313 24.5389 1.11674 24.7341 1.1227C24.9293 1.12865 25.102 1.16107 25.2522 1.21864C25.4215 1.29076 25.5697 1.4039 25.6968 1.55807C25.8238 1.71157 25.9151 1.89022 25.97 2.09202C26.0303 2.31302 26.0329 2.51681 25.9773 2.70141C25.9224 2.88667 25.8251 3.04811 25.6862 3.18375C25.8232 3.17184 25.9482 3.1778 26.0627 3.20096C26.1778 3.22478 26.2883 3.26183 26.3962 3.31542C26.543 3.39879 26.6661 3.51193 26.7673 3.65221C26.8673 3.79314 26.9407 3.94995 26.9877 4.12264C27.0419 4.31915 27.0565 4.51037 27.0313 4.69564C27.0062 4.8809 26.9433 5.05095 26.8414 5.20776C26.7243 5.38442 26.5755 5.53065 26.3955 5.6471C26.2155 5.76289 25.9932 5.85684 25.7285 5.92896L24.1134 6.36896L22.8047 1.55807ZM23.95 2.0682L24.2855 3.30087L24.5521 3.22875C24.7943 3.16787 24.961 3.06466 25.0523 2.91777C25.1443 2.77154 25.1635 2.60017 25.1092 2.403C25.0589 2.21575 24.9564 2.08607 24.8029 2.01461C24.6487 1.94315 24.4562 1.93587 24.2239 1.9941L23.95 2.0682ZM24.482 4.02207L24.8432 5.34869L25.2469 5.23819C25.4017 5.2018 25.5261 5.15813 25.6187 5.10983C25.7113 5.06153 25.7894 5.00264 25.8529 4.93383C25.9284 4.85113 25.9793 4.75452 26.0058 4.64403C26.0329 4.53419 26.0296 4.4184 25.9972 4.29798C25.9581 4.17425 25.8946 4.07434 25.8073 3.99759C25.7193 3.9215 25.6154 3.87055 25.495 3.84673C25.409 3.83416 25.3183 3.83284 25.223 3.84342C25.1278 3.85401 24.9961 3.8818 24.8274 3.92745L24.482 4.02207Z" fill="#B6A278"/>
<path d="M30.6042 0.876449L29.4913 1.01474L30.0015 5.13089L29.0374 5.24999L28.5273 1.13383L27.4151 1.27146L27.3125 0.44108L30.501 0.0454102L30.6042 0.876449Z" fill="#B6A278"/>
<path d="M36.9588 0.188572L36.8993 1.02292L35.2299 0.904483L34.9348 5.04049L33.9668 4.97168L34.3195 0L36.9588 0.188572Z" fill="#B6A278"/>
<path d="M38.4534 0.409668L39.8726 0.708736C40.1988 0.777548 40.4496 0.860917 40.6249 0.958842C40.8009 1.05743 40.9518 1.18844 41.0801 1.35319C41.2105 1.53316 41.2965 1.73364 41.3395 1.95397C41.3819 2.17364 41.3792 2.40125 41.3283 2.63548C41.2839 2.84919 41.2065 3.04438 41.0987 3.22038C40.9901 3.39638 40.8558 3.53599 40.6964 3.63921C40.525 3.75037 40.3305 3.82182 40.1095 3.8516C39.8898 3.88071 39.6424 3.86682 39.3698 3.80991L38.7557 3.67957L38.374 5.48589L37.4238 5.28541L38.4534 0.409668ZM39.2315 1.42862L38.9291 2.86242L39.3162 2.94381C39.4922 2.98086 39.6252 2.99674 39.7158 2.99012C39.8064 2.98417 39.8911 2.96101 39.9705 2.92197C40.0671 2.87566 40.1485 2.80618 40.2127 2.71355C40.2782 2.62026 40.3258 2.51836 40.3543 2.40721C40.3775 2.29539 40.3755 2.18489 40.3477 2.07704C40.3192 1.96919 40.2709 1.87523 40.2008 1.79451C40.1379 1.72967 40.0572 1.67343 39.9619 1.62513C39.864 1.57617 39.7304 1.53514 39.561 1.49875L39.2315 1.42862Z" fill="#B6A278"/>
<path d="M42.7569 1.37695L43.8175 1.78453L44.0908 4.5873L45.9937 2.62351L46.9835 3.00463L43.0354 6.82502L42.0449 6.44391L43.1936 5.39651L42.7569 1.37695Z" fill="#B6A278"/>
<path d="M48.4361 3.74854L51.8085 5.79834L49.2208 10.0581L48.3904 9.55324L50.5441 6.00875L48.8324 4.96929L46.678 8.51312L45.8477 8.00893L48.4361 3.74854Z" fill="#B6A278"/>
<path d="M53.5821 7.11621L56.5185 9.75291L53.1877 13.4615L52.4645 12.8124L55.2355 9.72644L53.7455 8.38791L50.9745 11.4745L50.252 10.8255L53.5821 7.11621Z" fill="#B6A278"/>
<path d="M59.0158 22.4558L59.7886 21.6414L58.9146 19.7715L57.7897 19.8344L57.3418 18.8783L62.8732 18.6738L63.1835 19.3375L59.4571 23.3994L59.0158 22.4558ZM59.7668 19.7239L60.3748 21.0227L61.7107 19.6147L59.7668 19.7239Z" fill="#B6A278"/>
<path d="M64.4476 22.8164L64.7712 24.0061C64.8519 24.3038 64.8903 24.5506 64.883 24.7465C64.877 24.9416 64.8453 25.1143 64.787 25.2639C64.7149 25.4333 64.6018 25.5821 64.4476 25.7092C64.2941 25.8362 64.1155 25.9269 63.9137 25.9824C63.692 26.042 63.4889 26.0446 63.3036 25.989C63.1183 25.9341 62.9582 25.8369 62.8213 25.6986C62.8332 25.8355 62.8272 25.9606 62.8041 26.0751C62.7809 26.1895 62.7419 26.3007 62.6896 26.4079C62.6049 26.5548 62.4924 26.6785 62.3515 26.7791C62.2112 26.8783 62.0544 26.9524 61.8817 26.9994C61.6845 27.053 61.4933 27.0675 61.3087 27.0424C61.1235 27.0179 60.9534 26.9544 60.7959 26.8525C60.6206 26.7354 60.4744 26.5872 60.3579 26.4072C60.2421 26.2266 60.1482 26.0049 60.0754 25.7403L59.6367 24.1252L64.4476 22.8164ZM61.9849 24.493L60.657 24.8536L60.7675 25.2573C60.8039 25.4127 60.8469 25.5365 60.8952 25.6291C60.9435 25.7217 61.0011 25.7998 61.0719 25.864C61.1546 25.9394 61.2505 25.991 61.361 26.0175C61.4722 26.0446 61.5873 26.0413 61.7064 26.0082C61.8308 25.9692 61.9307 25.9063 62.0081 25.8177C62.0842 25.7297 62.1345 25.6258 62.159 25.5054C62.1728 25.42 62.1735 25.3281 62.1623 25.2334C62.1523 25.1375 62.1245 25.0058 62.0789 24.8384L61.9849 24.493ZM63.9381 23.9617L62.7061 24.2965L62.7776 24.5632C62.8378 24.8047 62.9417 24.9721 63.0886 25.0641C63.2348 25.156 63.4062 25.1745 63.6033 25.121C63.7906 25.0693 63.9203 24.9674 63.9924 24.8139C64.0632 24.6598 64.0711 24.4672 64.0129 24.235L63.9381 23.9617Z" fill="#B6A278"/>
<path d="M65.1268 30.6166L64.9898 29.5044L60.873 30.0125L60.7539 29.0478L64.8701 28.5403L64.7324 27.4268L65.5635 27.3242L65.9578 30.5134L65.1268 30.6166Z" fill="#B6A278"/>
<path d="M65.8102 36.9848L64.9752 36.9246L65.0963 35.2552L60.959 34.9561L61.0291 33.9868L66.0008 34.3461L65.8102 36.9848Z" fill="#B6A278"/>
<path d="M65.588 38.4775L65.2882 39.8967C65.2188 40.2229 65.1347 40.4744 65.0361 40.6497C64.9376 40.825 64.8059 40.9759 64.6418 41.1049C64.4618 41.2353 64.2607 41.3213 64.041 41.3643C63.8207 41.406 63.5931 41.4027 63.3595 41.353C63.1451 41.3067 62.9499 41.23 62.7739 41.1208C62.5986 41.013 62.459 40.8793 62.3551 40.7198C62.2433 40.5485 62.1738 40.3526 62.1441 40.1323C62.1136 39.912 62.1288 39.6652 62.1857 39.3926L62.3161 38.7785L60.5098 38.3961L60.7116 37.4453L65.588 38.4775ZM64.5677 39.2556L63.1352 38.9512L63.0525 39.339C63.0155 39.5143 62.9996 39.6473 63.0068 39.7379C63.0128 39.8293 63.036 39.9139 63.075 39.9933C63.12 40.0899 63.1901 40.1707 63.2834 40.2362C63.3761 40.3017 63.478 40.3487 63.5898 40.3771C63.7003 40.4009 63.8108 40.3989 63.9193 40.3705C64.0271 40.3427 64.1217 40.2937 64.2025 40.2243C64.2666 40.1614 64.3229 40.082 64.3718 39.9854C64.4201 39.8888 64.4625 39.7552 64.4989 39.5851L64.5677 39.2556Z" fill="#B6A278"/>
<path d="M64.6174 42.7828L64.2085 43.8415L61.4063 44.1134L63.3682 46.0176L62.9851 47.0075L59.168 43.0561L59.5511 42.0669L60.5965 43.2162L64.6174 42.7828Z" fill="#B6A278"/>
<path d="M62.2418 48.4584L60.1901 51.8289L55.9316 49.2378L56.4378 48.4075L59.9803 50.5638L61.0218 48.8527L57.4786 46.6958L57.9841 45.8667L62.2418 48.4584Z" fill="#B6A278"/>
<path d="M58.872 53.6015L56.2339 56.5353L52.5273 53.2018L53.1764 52.48L56.2604 55.253L57.5996 53.7643L54.5156 50.9906L55.1647 50.2681L58.872 53.6015Z" fill="#B6A278"/>
<path d="M43.5373 59.0185L44.3525 59.7933L46.2216 58.9193L46.1588 57.7938L47.1149 57.3472L47.316 62.8786L46.6524 63.1883L42.5918 59.4605L43.5373 59.0185ZM46.2699 59.7702L44.9691 60.3789L46.3771 61.7154L46.2699 59.7702Z" fill="#B6A278"/>
<path d="M43.1743 64.4519L41.984 64.7741C41.6862 64.8548 41.4394 64.8932 41.2436 64.8866C41.049 64.8793 40.8757 64.8469 40.7261 64.79C40.5561 64.7172 40.4092 64.6041 40.2815 64.4499C40.1551 64.297 40.0645 64.1177 40.0089 63.9159C39.9487 63.6949 39.9467 63.4911 40.0023 63.3052C40.0572 63.1206 40.1545 62.9598 40.2928 62.8235C40.1571 62.8348 40.0307 62.8295 39.9163 62.8057C39.8018 62.7832 39.6907 62.7448 39.5828 62.6912C39.4372 62.6065 39.3128 62.4947 39.2129 62.3538C39.113 62.2135 39.0389 62.0567 38.9926 61.8833C38.9384 61.6861 38.9245 61.4949 38.9496 61.3097C38.9734 61.1257 39.0376 60.9557 39.1382 60.7982C39.2573 60.6222 39.4055 60.476 39.5855 60.3602C39.7654 60.2437 39.9871 60.1504 40.2531 60.0783L41.8682 59.6396L43.1743 64.4519ZM41.4983 61.9865L41.1384 60.6593L40.7341 60.7691C40.5806 60.8061 40.4562 60.8485 40.3629 60.8968C40.2703 60.9451 40.1915 61.0033 40.1287 61.0735C40.0519 61.1555 40.0016 61.2514 39.9738 61.3626C39.9474 61.4731 39.9507 61.5895 39.9838 61.708C40.0221 61.8324 40.0857 61.9329 40.1737 62.009C40.2617 62.0858 40.3655 62.1361 40.4853 62.1606C40.5713 62.1745 40.6633 62.1745 40.7579 62.1645C40.8525 62.1546 40.9849 62.1268 41.1529 62.0805L41.4983 61.9865ZM42.0296 63.9411L41.6948 62.7084L41.4275 62.7799C41.1853 62.8401 41.0186 62.944 40.9273 63.0902C40.8353 63.2364 40.8155 63.4084 40.8691 63.605C40.92 63.7929 41.0219 63.9219 41.1767 63.9947C41.3296 64.0661 41.5228 64.0727 41.755 64.0145L42.0296 63.9411Z" fill="#B6A278"/>
<path d="M35.373 65.1276L36.486 64.9906L35.9791 60.8738L36.9432 60.7554L37.4493 64.8729L38.5622 64.7352L38.6648 65.5663L35.4756 65.9586L35.373 65.1276Z" fill="#B6A278"/>
<path d="M28.9922 65.8068L29.0531 64.9724L30.7224 65.0948L31.0248 60.9575L31.9935 61.0277L31.6309 66L28.9922 65.8068Z" fill="#B6A278"/>
<path d="M27.4979 65.5854L26.0799 65.2843C25.7531 65.2148 25.5023 65.1308 25.3276 65.0322C25.1523 64.9336 25.0008 64.8013 24.8731 64.6372C24.7434 64.4566 24.6574 64.2568 24.615 64.0358C24.5727 63.8154 24.5767 63.5885 24.6263 63.3542C24.6719 63.1405 24.7494 62.9453 24.8579 62.77C24.967 62.5933 25.1014 62.4544 25.2602 62.3505C25.4315 62.2394 25.6274 62.1699 25.8477 62.1395C26.0674 62.111 26.3148 62.1249 26.5868 62.1825L27.2014 62.3135L27.5852 60.5078L28.5353 60.7103L27.4979 65.5854ZM26.7217 64.5651L27.0268 63.1326L26.6397 63.0492C26.4637 63.0122 26.3314 62.9963 26.2401 63.0036C26.1494 63.0095 26.0647 63.032 25.9847 63.0717C25.8881 63.1167 25.808 63.1855 25.7418 63.2788C25.6757 63.3715 25.6287 63.474 25.6002 63.5858C25.5764 63.6977 25.5784 63.8075 25.6062 63.9153C25.634 64.0225 25.683 64.1178 25.7524 64.1985C25.8153 64.2627 25.8947 64.3196 25.9913 64.3679C26.0879 64.4162 26.2215 64.4592 26.3916 64.4949L26.7217 64.5651Z" fill="#B6A278"/>
<path d="M23.1953 64.61L22.1374 64.2005L21.8674 61.3977L19.9625 63.3582L18.9727 62.9757L22.926 59.1606L23.9159 59.5437L22.7659 60.5885L23.1953 64.61Z" fill="#B6A278"/>
<path d="M17.5234 62.2301L14.1543 60.1757L16.7493 55.9199L17.5784 56.4248L15.4187 59.9673L17.1291 61.01L19.2881 57.4682L20.1171 57.9737L17.5234 62.2301Z" fill="#B6A278"/>
<path d="M12.381 58.8542L9.44922 56.2142L12.7853 52.5103L13.5072 53.16L10.7308 56.2413L12.2189 57.5812L14.9946 54.5005L15.7164 55.1496L12.381 58.8542Z" fill="#B6A278"/>
<path d="M6.97967 43.5264L6.20553 44.3409L7.07826 46.2114L8.20439 46.1485L8.65035 47.1046L3.11825 47.3044L2.80859 46.6415L6.53834 42.5815L6.97967 43.5264ZM6.22604 46.2584L5.61931 44.9589L4.2821 46.3656L6.22604 46.2584Z" fill="#B6A278"/>
<path d="M1.54156 43.1488L1.21933 41.9591C1.13861 41.6607 1.10156 41.4146 1.10817 41.2194C1.11479 41.0229 1.14721 40.8502 1.20411 40.7013C1.2769 40.5326 1.3907 40.3844 1.5442 40.2567C1.69837 40.1303 1.87636 40.0397 2.07882 39.9848C2.29915 39.9239 2.50294 39.9219 2.68821 39.9781C2.87347 40.0337 3.03425 40.131 3.16989 40.2699C3.15864 40.1336 3.1646 40.0079 3.18776 39.8935C3.21091 39.7783 3.24929 39.6678 3.30288 39.5606C3.38691 39.4138 3.4994 39.2907 3.64033 39.1901C3.7806 39.0895 3.93741 39.0161 4.11077 38.9704C4.30794 38.9162 4.4985 38.9016 4.68376 38.9274C4.86836 38.9513 5.03907 39.0154 5.19588 39.1173C5.37254 39.2358 5.51811 39.384 5.63456 39.5646C5.75101 39.7452 5.84364 39.9669 5.91576 40.2316L6.35245 41.8473L1.54156 43.1488ZM2.05236 42.0048L3.28634 41.6713L3.21422 41.404C3.15401 41.1632 3.05079 40.9958 2.90457 40.9038C2.75834 40.8112 2.58697 40.792 2.3898 40.8462C2.20189 40.8965 2.07221 40.9978 2.00009 41.1519C1.92863 41.3054 1.92135 41.4986 1.97825 41.7302L2.05236 42.0048ZM4.00755 41.4761L5.33483 41.1175L5.22499 40.7132C5.1886 40.5578 5.14559 40.434 5.09729 40.3414C5.04965 40.2488 4.99077 40.17 4.92129 40.1072C4.83859 40.0311 4.74198 39.9801 4.63149 39.9537C4.52165 39.9239 4.40653 39.9272 4.2861 39.9603C4.16237 40 4.06246 40.0628 3.98571 40.1502C3.9083 40.2375 3.85801 40.3421 3.83353 40.4625C3.82096 40.5485 3.81964 40.6398 3.82956 40.7344C3.84015 40.8297 3.86794 40.9614 3.91359 41.1301L4.00755 41.4761Z" fill="#B6A278"/>
<path d="M0.872055 35.3472L1.00836 36.4607L5.12518 35.9572L5.24295 36.9206L1.12613 37.4248L1.26177 38.5383L0.430731 38.6389L0.0410156 35.4491L0.872055 35.3472Z" fill="#B6A278"/>
<path d="M0.197771 28.9644L1.03278 29.0259L0.909051 30.6946L5.04572 30.9996L4.97426 31.9683L0.00390625 31.603L0.197771 28.9644Z" fill="#B6A278"/>
<path d="M0.419922 27.486L0.721637 26.0674C0.791111 25.7419 0.875141 25.4904 0.973727 25.3151C1.07165 25.1398 1.20398 24.9882 1.36874 24.8605C1.54937 24.7309 1.74985 24.6448 1.97018 24.6025C2.19051 24.5608 2.41746 24.5641 2.65169 24.6144C2.86606 24.6601 3.06125 24.7375 3.23593 24.8467C3.41193 24.9552 3.55154 25.0895 3.65475 25.2489C3.76591 25.421 3.83605 25.6168 3.86582 25.8371C3.8956 26.0575 3.88038 26.3036 3.82348 26.5769L3.69247 27.1896L5.49813 27.5747L5.295 28.5255L0.419922 27.486ZM1.44152 26.7099L2.874 27.0156L2.95671 26.6285C2.99376 26.4525 3.00964 26.3202 3.00302 26.2295C2.99707 26.1389 2.97457 26.0535 2.93554 25.9741C2.88988 25.8775 2.82041 25.7968 2.72778 25.7313C2.63448 25.6651 2.53325 25.6188 2.42209 25.5897C2.30961 25.5652 2.19977 25.5679 2.09192 25.5956C1.98407 25.6234 1.88946 25.6731 1.80807 25.7419C1.74389 25.8047 1.68699 25.8841 1.63869 25.9807C1.59039 26.0773 1.54738 26.211 1.51165 26.3817L1.44152 26.7099Z" fill="#B6A278"/>
<path d="M1.40039 23.1709L1.81128 22.1129L4.61405 21.845L2.65489 19.9381L3.03931 18.9482L6.85111 22.9049L6.46668 23.8948L5.42259 22.7435L1.40039 23.1709Z" fill="#B6A278"/>
<path d="M3.78516 17.5L5.84158 14.1328L10.0954 16.7305L9.58986 17.5595L6.05 15.3979L5.00591 17.107L8.54643 19.2692L8.0396 20.0983L3.78516 17.5Z" fill="#B6A278"/>
<path d="M7.16211 12.3624L9.80542 9.43262L13.5067 12.7713L12.8563 13.4932L9.77631 10.7142L8.43513 12.2016L11.5151 14.9799L10.8641 15.7018L7.16211 12.3624Z" fill="#B6A278"/>
</svg>
