<svg width="27" height="27" viewBox="0 0 27 27" fill="none" xmlns="http://www.w3.org/2000/svg">
<path d="M21.0674 25.9999C16.1924 25.9999 11.1611 23.7499 7.25491 19.8437C3.12993 15.7187 0.879944 10.5625 1.00494 5.59373V5.40623L1.12994 5.24998C1.47369 4.81248 1.81744 4.43748 2.16119 4.06249C3.47368 2.74999 5.00493 1.75 6.72367 1.09375C6.87992 1.03125 7.06742 1 7.25491 1C7.84866 1 8.84866 1.3125 9.03616 1.90625C9.66115 3.59374 10.4112 5.81248 10.9736 7.90622C11.0674 8.31247 10.9736 9.49996 10.3799 9.84371L8.37991 11.0937C8.25491 11.1875 8.19241 11.3125 8.16116 11.4375C8.09866 11.7812 8.22366 12.2187 8.47366 12.5937C9.25491 13.6874 10.1612 14.7499 11.1924 15.7812C12.2236 16.7812 13.2861 17.6874 14.3486 18.4687C14.8799 18.8749 15.6299 18.9062 15.8174 18.5937L17.0986 16.5937C17.4111 16.0937 18.3799 15.9687 18.7236 15.9687C18.8486 15.9687 18.9424 15.9687 19.0361 15.9999C21.5986 16.5624 23.1298 17.0624 25.0986 17.9687C25.6923 18.2499 26.1298 19.5624 25.8486 20.2812C25.1923 21.9999 24.1923 23.5311 22.8798 24.8436C22.5048 25.2186 22.0986 25.5624 21.6923 25.8749L21.5986 25.9999H21.0674ZM2.12994 5.81248C2.06744 10.4375 4.19243 15.2187 7.97366 18.9687L8.06741 19.0624C11.7549 22.7499 16.5049 24.8749 21.0674 24.8749H21.2236C21.5673 24.5936 21.8798 24.3124 22.1611 24.0311C23.3486 22.8436 24.2548 21.4374 24.8798 19.8437C24.9423 19.6562 24.7861 19.0624 24.6298 18.9374C22.8173 18.1249 21.3486 17.6562 18.8486 17.0937C18.5049 17.0937 18.1611 17.1874 18.0674 17.2499L16.8486 19.1874C16.3174 20.0624 14.8174 20.1562 13.7549 19.3749C12.6299 18.5624 11.5361 17.6249 10.4736 16.5624C9.41115 15.4999 8.47366 14.3749 7.66116 13.2499C7.19242 12.6249 7.00492 11.875 7.12992 11.2187C7.22367 10.75 7.47366 10.375 7.84866 10.125L9.84865 8.87496C9.8799 8.78121 9.97365 8.31247 9.9424 8.15622C9.41115 6.09373 8.62991 3.90624 8.03616 2.24999C7.97366 2.21874 7.59866 2.09374 7.31741 2.09374C7.22367 2.09374 7.19242 2.09374 7.19242 2.09374C5.59867 2.71874 4.19243 3.62499 3.00493 4.81248C2.69244 5.15623 2.41119 5.46873 2.12994 5.81248Z" fill="#B6A278" stroke="#B6A278" stroke-width="0.3"/>
</svg>
