<svg width="19" height="25" viewBox="0 0 19 25" fill="none" xmlns="http://www.w3.org/2000/svg">
<path d="M9.55683 5.13167C7.32552 5.10377 5.51259 6.91671 5.4847 9.14801V9.1759C5.45681 11.4072 7.24185 13.1923 9.47315 13.2201H9.50104C11.7323 13.248 13.5453 11.4351 13.5732 9.20379C13.6011 6.97249 11.7881 5.15956 9.55683 5.13167ZM9.55683 11.5467C8.24594 11.5746 7.18607 10.5147 7.15818 9.20379V9.1759C7.15818 7.86501 8.19015 6.83303 9.50104 6.80514C10.8119 6.77725 11.8718 7.83712 11.8997 9.14801C11.9276 10.4589 10.8677 11.5188 9.55683 11.5467Z" fill="#B6A278"/>
<path d="M18.983 9.06467C18.6205 3.98846 14.4647 0 9.5 0C4.53535 0 0.379545 3.98846 0.0169585 9.06467C-0.122498 11.4075 0.602676 13.7225 2.02513 15.5912L9.5 24.6559L16.947 15.6191H16.9749C18.3973 13.7504 19.1225 11.4075 18.983 9.06467ZM15.6361 14.5593L9.5 22.0341L3.36391 14.5593C2.19248 13.0252 1.57887 11.1007 1.69044 9.17624C1.94146 5.49459 4.92583 1.67348 9.5 1.67348C14.0742 1.67348 17.0585 5.49459 17.3096 9.17624C17.4211 11.1007 16.8075 13.0252 15.6361 14.5593Z" fill="#B6A278"/>
</svg>
