<svg width="21" height="21" viewBox="0 0 21 21" fill="none" xmlns="http://www.w3.org/2000/svg">
<path d="M10.4555 0C4.68085 0 0 4.70077 0 10.5C0 16.2992 4.68085 21 10.4555 21C16.2302 21 20.911 16.2992 20.911 10.5C20.911 4.70077 16.2302 0 10.4555 0ZM10.4555 1.61538C15.3334 1.61538 19.3025 5.60135 19.3025 10.5C19.3025 15.3987 15.3334 19.3846 10.4555 19.3846C5.57761 19.3846 1.60854 15.3987 1.60854 10.5C1.60854 5.60135 5.57761 1.61538 10.4555 1.61538Z" fill="#B6A278"/>
<path d="M8.74937 14.4989L8.75018 14.4997L15.5792 7.6424L14.4412 6.49951L8.74937 12.2164L6.46927 9.92655L5.33203 11.0686L8.74857 14.4997L8.74937 14.4989Z" fill="#B6A278"/>
</svg>
