<svg width="67" height="52" viewBox="0 0 67 52" fill="none" xmlns="http://www.w3.org/2000/svg">
<path d="M21.9322 27.597L19.5328 21.9236H8.59308L6.19367 27.597H0.459478L12.2125 0H16.198L27.6257 27.597H21.9322ZM10.2605 17.6281H17.9874L14.1646 7.90223L10.2605 17.6281Z" fill="#1D315E"/>
<path d="M29.9794 0.56734H36.6896C38.3706 0.56734 39.7126 0.729437 40.7157 1.05363C41.746 1.35081 42.6136 1.75605 43.3185 2.26936C44.1047 2.89073 44.7148 3.70122 45.1486 4.70082C45.6095 5.6734 45.8399 6.72703 45.8399 7.86171C45.8399 9.10445 45.5552 10.1716 44.9859 11.0631C44.4436 11.9547 43.7116 12.6571 42.7898 13.1704C43.5218 13.3055 44.1725 13.5216 44.7419 13.8188C45.3112 14.0889 45.8399 14.4401 46.3279 14.8724C46.9786 15.5208 47.4666 16.2908 47.792 17.1823C48.1173 18.0468 48.28 18.9654 48.28 19.9379C48.28 21.0456 48.0767 22.0722 47.67 23.0178C47.2904 23.9363 46.7211 24.7333 45.9619 25.4087C45.0943 26.1652 44.1047 26.719 42.9932 27.0702C41.8816 27.4214 40.5802 27.597 39.089 27.597H29.9794V0.56734ZM35.2662 4.86291V11.7926H36.7709C38.1265 11.8196 39.1432 11.5224 39.821 10.901C40.526 10.2526 40.8784 9.37461 40.8784 8.26695C40.8784 7.21332 40.526 6.38933 39.821 5.79497C39.1161 5.20062 38.113 4.88993 36.8116 4.86291H35.2662ZM35.2662 15.845V23.3015H37.5436C38.4112 23.3285 39.1161 23.2879 39.6584 23.1799C40.2277 23.0448 40.7293 22.8422 41.1631 22.572C41.6782 22.2478 42.0849 21.8156 42.3831 21.2752C42.6814 20.7349 42.8305 20.1271 42.8305 19.4516C42.8034 18.7492 42.6136 18.1414 42.2611 17.6281C41.9087 17.0877 41.4342 16.669 40.8377 16.3718C40.404 16.1827 39.9295 16.0476 39.4144 15.9666C38.8992 15.8855 38.1672 15.845 37.2183 15.845H35.2662Z" fill="#1D315E"/>
<path d="M67 5.10606H60.8998V27.597H55.613V5.10606H49.5127V0.56734H67V5.10606Z" fill="#1D315E"/>
<path d="M0 46.0171V34.8509H7.14279V37.5328H3.15732V46.0171H0Z" fill="#1D315E"/>
<path d="M11.9524 44.573V52H8.79504V34.8509H11.9524V36.295C12.3492 35.7277 12.8495 35.2893 13.4534 34.9798C14.0745 34.6532 14.7905 34.4898 15.6014 34.4898C17.2232 34.507 18.543 35.0744 19.561 36.1919C20.5962 37.3093 21.1138 38.7191 21.1138 40.4211C21.1138 42.1403 20.5875 43.5673 19.5351 44.7019C18.4999 45.8194 17.1628 46.3782 15.5237 46.3782C14.7819 46.361 14.109 46.2149 13.5051 45.9398C12.9013 45.6475 12.3837 45.1919 11.9524 44.573ZM14.7474 37.275C13.8329 37.275 13.0824 37.5844 12.4958 38.2033C11.9092 38.8051 11.6245 39.5443 11.6418 40.4211C11.6418 41.3323 11.9265 42.0887 12.4958 42.6905C13.0824 43.2922 13.8329 43.5931 14.7474 43.5931C15.6445 43.5931 16.3864 43.2922 16.973 42.6905C17.5596 42.0887 17.8529 41.3323 17.8529 40.4211C17.8529 39.5443 17.5596 38.8051 16.973 38.2033C16.3864 37.6016 15.6445 37.2921 14.7474 37.275Z" fill="#1D315E"/>
<path d="M23.3216 52L27.4365 44.3409L22.1053 34.8509H25.7802L29.2481 41.1948L32.3536 34.8509H35.925L26.893 52H23.3216Z" fill="#1D315E"/>
<path d="M37.48 34.8509H48.0907V46.0171H44.9333V37.5328H40.6373V46.0171H37.48V34.8509Z" fill="#1D315E"/>
<path d="M51.1022 34.8509H61.7129V46.0171H58.5555V37.5328H54.2595V46.0171H51.1022V34.8509Z" fill="#1D315E"/>
</svg>
