<svg width="18" height="19" viewBox="0 0 18 19" fill="none" xmlns="http://www.w3.org/2000/svg">
<path fill-rule="evenodd" clip-rule="evenodd" d="M15.9548 0.482001C15.25 0.802379 7.30462 4.51876 0.832982 7.53031C0.320378 7.78662 0 8.29922 0 8.81183C0 9.32443 0.384453 9.70888 0.832982 9.77296C1.21744 9.83704 5.06197 10.4137 5.06197 10.4137L6.15126 16.8213L6.72794 14.0019L5.89495 9.77296L13.7122 4.00616L7.30462 11.0545L9.54726 13.6175C9.67541 13.7456 12.4307 16.9494 12.6229 17.1417C12.9433 17.462 13.4559 18.1028 13.7122 18.1028C14.1607 18.1028 14.6092 17.462 14.8015 16.5009C14.9937 15.6038 16.2752 9.38851 17.8771 1.12276C18.0693 0.225699 17.2363 -0.158754 15.9548 0.482001Z" fill="#519FD5"/>
</svg>
