<svg width="48" height="44" viewBox="0 0 48 44" fill="none" xmlns="http://www.w3.org/2000/svg">
<path d="M0.0002392 38.1079C0.0002392 38.7965 0.135859 39.4783 0.399355 40.1144C0.662852 40.7505 1.04906 41.3286 1.53594 41.8154C2.02282 42.3023 2.60083 42.6885 3.23696 42.952C3.8731 43.2155 4.55491 43.3511 5.24346 43.3511H44.3784V33.0269H48V21.5675H44.3784V11.5135H39.2433V2.48647H25.6217L23.5136 0L20.6488 2.48647H6.10832C5.30162 2.48644 4.50291 2.64621 3.7583 2.95654C3.01369 3.26687 2.33793 3.72163 1.77003 4.29456C1.20213 4.86748 0.753344 5.54723 0.449583 6.29454C0.145821 7.04186 -0.00689967 7.84194 0.0002392 8.64861C0.0002392 8.75671 0.0002392 8.91887 0.0002392 9.02698V38.1079ZM44.7568 24.8107V29.7836H36.5947V24.8107H44.7568ZM36.0001 5.7297V11.5135H33.4055L28.4325 5.7297H36.0001ZM23.1353 4.59457L29.0812 11.5135H15.1353L23.1353 4.59457ZM6.10832 5.7297H16.865L10.1623 11.5135H6.10832C5.34134 11.5135 4.60578 11.2088 4.06345 10.6664C3.52112 10.1241 3.21644 9.38855 3.21644 8.62158C3.21644 7.85461 3.52112 7.11904 4.06345 6.57671C4.60578 6.03438 5.34134 5.7297 6.10832 5.7297ZM3.24347 13.9999C4.12667 14.4647 5.1103 14.706 6.10832 14.7026H41.1352V21.5675H33.3514V33.0269H41.1352V40.1079H5.24346C4.98081 40.1079 4.72074 40.0562 4.47809 39.9557C4.23544 39.8552 4.01497 39.7078 3.82925 39.5221C3.64353 39.3364 3.49622 39.1159 3.39571 38.8733C3.2952 38.6306 3.24347 38.3706 3.24347 38.1079V13.9999Z" fill="#1D315E"/>
</svg>
