<svg width="150" height="150" viewBox="0 0 150 150" fill="none" xmlns="http://www.w3.org/2000/svg">
<circle cx="75" cy="75" r="75" fill="white"/>
<path d="M58.9937 37.5923L57.7575 36.4212L54.9261 37.7487L55.0224 39.4541L53.5746 40.1329L53.2598 31.75L54.2644 31.2798L60.4245 36.9225L58.9937 37.5923ZM54.8519 36.4573L56.8201 35.5349L54.6845 33.5106L54.8519 36.4573Z" fill="#B6A278"/>
<path d="M59.5508 29.3557L61.3535 28.8665C61.8057 28.7421 62.1786 28.687 62.4744 28.696C62.7702 28.705 63.0319 28.7542 63.2595 28.8414C63.5161 28.9507 63.7407 29.1221 63.9332 29.3557C64.1257 29.5883 64.2641 29.8591 64.3473 30.1648C64.4385 30.4997 64.4425 30.8085 64.3583 31.0883C64.2751 31.369 64.1277 31.6136 63.9172 31.8192C64.1247 31.8011 64.3142 31.8101 64.4877 31.8452C64.6621 31.8813 64.8296 31.9375 64.993 32.0187C65.2156 32.145 65.402 32.3165 65.5554 32.529C65.7068 32.7426 65.8181 32.9802 65.8893 33.2419C65.9715 33.5397 65.9936 33.8294 65.9555 34.1101C65.9174 34.3909 65.8221 34.6485 65.6677 34.8862C65.4903 35.1539 65.2647 35.3754 64.992 35.5519C64.7193 35.7274 64.3824 35.8697 63.9813 35.979L61.534 36.6458L59.5508 29.3557ZM61.2863 30.1288L61.7946 31.9966L62.1987 31.8873C62.5656 31.7951 62.8183 31.6387 62.9567 31.4161C63.096 31.1945 63.1251 30.9349 63.0429 30.6361C62.9667 30.3523 62.8113 30.1558 62.5787 30.0475C62.3451 29.9393 62.0533 29.9282 61.7014 30.0165L61.2863 30.1288ZM62.0924 33.0895L62.6398 35.0997L63.2514 34.9323C63.486 34.8771 63.6745 34.811 63.8149 34.7378C63.9553 34.6646 64.0736 34.5754 64.1698 34.4711C64.2841 34.3458 64.3613 34.1994 64.4014 34.0319C64.4425 33.8655 64.4375 33.69 64.3884 33.5076C64.3292 33.3201 64.233 33.1687 64.1006 33.0524C63.9673 32.9371 63.8099 32.8599 63.6274 32.8238C63.4971 32.8047 63.3597 32.8027 63.2153 32.8188C63.071 32.8348 62.8714 32.8769 62.6158 32.9461L62.0924 33.0895Z" fill="#B6A278"/>
<path d="M71.3689 28.322L69.6825 28.5316L70.4555 34.7688L68.9947 34.9493L68.2217 28.712L66.5363 28.9206L66.3809 27.6623L71.2125 27.0627L71.3689 28.322Z" fill="#B6A278"/>
<path d="M80.9967 27.2804L80.9065 28.5447L78.3769 28.3652L77.9297 34.6326L76.4629 34.5283L76.9973 26.9946L80.9967 27.2804Z" fill="#B6A278"/>
<path d="M83.2632 27.6152L85.4138 28.0684C85.9081 28.1727 86.2881 28.299 86.5538 28.4474C86.8205 28.5968 87.0491 28.7953 87.2436 29.045C87.4411 29.3177 87.5714 29.6215 87.6366 29.9553C87.7008 30.2882 87.6968 30.6331 87.6196 30.988C87.5524 31.3119 87.4351 31.6076 87.2716 31.8743C87.1072 32.141 86.9037 32.3526 86.6621 32.509C86.4024 32.6774 86.1076 32.7857 85.7727 32.8308C85.4399 32.875 85.0649 32.8539 84.6518 32.7677L83.7214 32.5702L83.1429 35.3073L81.7031 35.0035L83.2632 27.6152ZM84.4423 29.1593L83.9841 31.3319L84.5706 31.4553C84.8373 31.5114 85.0388 31.5355 85.1762 31.5254C85.3135 31.5164 85.4419 31.4813 85.5622 31.4222C85.7086 31.352 85.8319 31.2467 85.9291 31.1063C86.0284 30.965 86.1006 30.8106 86.1437 30.6421C86.1788 30.4727 86.1758 30.3053 86.1337 30.1418C86.0906 29.9784 86.0174 29.836 85.9111 29.7137C85.8159 29.6155 85.6935 29.5302 85.5492 29.457C85.4008 29.3828 85.1982 29.3207 84.9416 29.2655L84.4423 29.1593Z" fill="#B6A278"/>
<path d="M89.7839 29.0811L91.3911 29.6987L91.8052 33.9457L94.6887 30.97L96.1886 31.5475L90.206 37.3366L88.7051 36.7591L90.4456 35.1719L89.7839 29.0811Z" fill="#B6A278"/>
<path d="M98.389 32.6746L103.499 35.7807L99.5781 42.2355L98.3199 41.4705L101.583 36.0995L98.9896 34.5244L95.7251 39.8944L94.4668 39.1304L98.389 32.6746Z" fill="#B6A278"/>
<path d="M106.187 37.7778L110.636 41.7733L105.589 47.3929L104.493 46.4093L108.692 41.7331L106.434 39.7049L102.235 44.3821L101.141 43.3985L106.187 37.7778Z" fill="#B6A278"/>
<path d="M114.421 61.0222L115.592 59.788L114.268 56.9546L112.564 57.0498L111.885 55.6011L120.267 55.2913L120.737 56.2969L115.09 62.4519L114.421 61.0222ZM115.559 56.8824L116.481 58.8505L118.505 56.717L115.559 56.8824Z" fill="#B6A278"/>
<path d="M122.653 61.5688L123.144 63.3716C123.266 63.8227 123.324 64.1967 123.313 64.4935C123.304 64.7893 123.256 65.0509 123.168 65.2775C123.058 65.5342 122.887 65.7598 122.653 65.9523C122.421 66.1448 122.15 66.2821 121.844 66.3664C121.508 66.4566 121.201 66.4606 120.92 66.3764C120.639 66.2932 120.396 66.1458 120.189 65.9362C120.207 66.1438 120.198 66.3333 120.163 66.5067C120.128 66.6802 120.069 66.8486 119.989 67.011C119.861 67.2336 119.691 67.4211 119.477 67.5735C119.264 67.7239 119.027 67.8362 118.765 67.9074C118.466 67.9886 118.177 68.0107 117.897 67.9726C117.616 67.9355 117.358 67.8392 117.12 67.6848C116.854 67.5073 116.633 67.2828 116.456 67.01C116.281 66.7363 116.138 66.4005 116.028 65.9994L115.363 63.552L122.653 61.5688ZM118.922 64.1095L116.909 64.6559L117.077 65.2675C117.132 65.5031 117.197 65.6906 117.27 65.831C117.343 65.9713 117.431 66.0896 117.538 66.1869C117.663 66.3012 117.809 66.3794 117.976 66.4195C118.145 66.4606 118.319 66.4556 118.499 66.4055C118.688 66.3463 118.839 66.2511 118.957 66.1167C119.072 65.9834 119.148 65.826 119.185 65.6435C119.206 65.5141 119.207 65.3748 119.19 65.2314C119.175 65.086 119.133 64.8865 119.064 64.6328L118.922 64.1095ZM121.881 63.3044L120.014 63.8117L120.123 64.2158C120.214 64.5817 120.371 64.8354 120.594 64.9747C120.816 65.1141 121.075 65.1422 121.374 65.061C121.658 64.9828 121.854 64.8284 121.963 64.5957C122.071 64.3621 122.083 64.0704 121.995 63.7185L121.881 63.3044Z" fill="#B6A278"/>
<path d="M123.681 73.3887L123.473 71.7033L117.235 72.4733L117.055 71.0115L123.292 70.2425L123.083 68.5551L124.343 68.3997L124.94 73.2323L123.681 73.3887Z" fill="#B6A278"/>
<path d="M124.716 83.0378L123.451 82.9466L123.635 80.417L117.365 79.9638L117.472 78.495L125.005 79.0394L124.716 83.0378Z" fill="#B6A278"/>
<path d="M124.381 85.2998L123.926 87.4504C123.821 87.9447 123.694 88.3257 123.544 88.5914C123.395 88.8571 123.196 89.0857 122.947 89.2812C122.674 89.4787 122.369 89.609 122.037 89.6742C121.703 89.7374 121.358 89.7324 121.004 89.6572C120.679 89.587 120.383 89.4707 120.116 89.3052C119.851 89.1418 119.639 88.9393 119.482 88.6977C119.312 88.438 119.207 88.1412 119.162 87.8073C119.116 87.4735 119.139 87.0995 119.225 86.6864L119.423 85.756L116.686 85.1765L116.991 83.7357L124.381 85.2998ZM122.835 86.4789L120.664 86.0177L120.539 86.6052C120.482 86.8709 120.458 87.0724 120.469 87.2098C120.478 87.3481 120.514 87.4765 120.573 87.5968C120.641 87.7432 120.747 87.8655 120.889 87.9648C121.029 88.064 121.183 88.1352 121.353 88.1783C121.52 88.2144 121.688 88.2114 121.852 88.1683C122.015 88.1262 122.159 88.052 122.281 87.9467C122.378 87.8515 122.464 87.7311 122.538 87.5848C122.611 87.4384 122.675 87.2358 122.73 86.9782L122.835 86.4789Z" fill="#B6A278"/>
<path d="M122.912 91.8238L122.292 93.428L118.046 93.8401L121.019 96.7256L120.438 98.2255L114.654 92.2379L115.235 90.739L116.819 92.4806L122.912 91.8238Z" fill="#B6A278"/>
<path d="M119.31 100.424L116.201 105.532L109.748 101.605L110.515 100.347L115.883 103.615L117.461 101.022L112.092 97.7532L112.858 96.4969L119.31 100.424Z" fill="#B6A278"/>
<path d="M114.202 108.218L110.205 112.663L104.588 107.612L105.571 106.518L110.245 110.72L112.274 108.464L107.601 104.261L108.584 103.166L114.202 108.218Z" fill="#B6A278"/>
<path d="M90.9659 116.427L92.2012 117.601L95.0336 116.277L94.9383 114.571L96.3871 113.894L96.6919 122.276L95.6863 122.745L89.5332 117.097L90.9659 116.427ZM95.1067 117.566L93.1356 118.488L95.2692 120.514L95.1067 117.566Z" fill="#B6A278"/>
<path d="M90.4181 124.659L88.6144 125.148C88.1632 125.27 87.7892 125.328 87.4925 125.318C87.1977 125.307 86.935 125.258 86.7084 125.172C86.4507 125.062 86.2282 124.89 86.0346 124.656C85.8432 124.425 85.7058 124.153 85.6216 123.847C85.5303 123.512 85.5273 123.204 85.6115 122.922C85.6948 122.642 85.8421 122.399 86.0517 122.192C85.8462 122.209 85.6547 122.201 85.4812 122.165C85.3078 122.131 85.1393 122.073 84.9759 121.991C84.7553 121.863 84.5668 121.694 84.4154 121.48C84.264 121.268 84.1517 121.03 84.0816 120.767C83.9993 120.469 83.9783 120.179 84.0164 119.898C84.0525 119.619 84.1497 119.362 84.3021 119.123C84.4826 118.856 84.7072 118.635 84.9799 118.459C85.2526 118.283 85.5885 118.141 85.9915 118.032L88.4389 117.367L90.4181 124.659ZM87.8785 120.924L87.333 118.912L86.7204 119.079C86.4878 119.135 86.2993 119.199 86.158 119.272C86.0176 119.346 85.8983 119.434 85.803 119.54C85.6867 119.664 85.6105 119.81 85.5684 119.978C85.5283 120.146 85.5333 120.322 85.5835 120.502C85.6416 120.69 85.7379 120.842 85.8712 120.958C86.0046 121.074 86.162 121.15 86.3435 121.187C86.4738 121.208 86.6132 121.208 86.7565 121.193C86.8999 121.178 87.1004 121.136 87.3551 121.066L87.8785 120.924ZM88.6836 123.885L88.1762 122.018L87.7712 122.126C87.4042 122.217 87.1516 122.374 87.0132 122.596C86.8738 122.818 86.8438 123.078 86.925 123.376C87.0022 123.661 87.1566 123.856 87.3912 123.967C87.6228 124.075 87.9156 124.085 88.2675 123.997L88.6836 123.885Z" fill="#B6A278"/>
<path d="M78.5957 125.683L80.2821 125.476L79.5141 119.237L80.9749 119.058L81.7419 125.297L83.4283 125.089L83.5837 126.348L78.7511 126.942L78.5957 125.683Z" fill="#B6A278"/>
<path d="M68.9238 126.713L69.0161 125.448L71.5457 125.634L72.0039 119.365L73.4717 119.471L72.9223 127.005L68.9238 126.713Z" fill="#B6A278"/>
<path d="M66.6625 126.377L64.5139 125.921C64.0186 125.815 63.6386 125.688 63.3739 125.539C63.1082 125.389 62.8786 125.189 62.6851 124.94C62.4886 124.666 62.3583 124.364 62.2941 124.029C62.2299 123.695 62.2359 123.351 62.3111 122.996C62.3803 122.672 62.4976 122.376 62.6621 122.111C62.8275 121.843 63.031 121.632 63.2716 121.475C63.5313 121.307 63.8281 121.201 64.162 121.155C64.4948 121.112 64.8698 121.133 65.2819 121.22L66.2133 121.419L66.7948 118.683L68.2346 118.99L66.6625 126.377ZM65.4864 124.831L65.9486 122.66L65.3621 122.534C65.0954 122.478 64.8949 122.454 64.7565 122.465C64.6192 122.474 64.4908 122.508 64.3695 122.568C64.2231 122.636 64.1018 122.74 64.0015 122.882C63.9013 123.022 63.8301 123.177 63.787 123.347C63.7509 123.516 63.7539 123.683 63.796 123.846C63.8381 124.009 63.9123 124.153 64.0176 124.275C64.1128 124.373 64.2332 124.459 64.3795 124.532C64.5259 124.605 64.7284 124.67 64.9861 124.725L65.4864 124.831Z" fill="#B6A278"/>
<path d="M60.1428 124.899L58.5397 124.278L58.1306 120.031L55.2441 123.002L53.7441 122.423L59.7348 116.641L61.2347 117.222L59.4921 118.805L60.1428 124.899Z" fill="#B6A278"/>
<path d="M51.5487 121.293L46.4434 118.179L50.3756 111.731L51.6319 112.496L48.3594 117.864L50.9511 119.444L54.2227 114.077L55.4789 114.843L51.5487 121.293Z" fill="#B6A278"/>
<path d="M43.757 116.177L39.3145 112.177L44.3696 106.564L45.4635 107.549L41.2565 112.218L43.5114 114.248L47.7174 109.58L48.8112 110.564L43.757 116.177Z" fill="#B6A278"/>
<path d="M35.5705 92.9507L34.3974 94.1849L35.7199 97.0193L37.4263 96.924L38.1021 98.3728L29.7192 98.6756L29.25 97.671L34.9017 91.5189L35.5705 92.9507ZM34.4285 97.0905L33.5091 95.1213L31.4828 97.2529L34.4285 97.0905Z" fill="#B6A278"/>
<path d="M27.3317 92.3781L26.8434 90.5754C26.7211 90.1232 26.6649 89.7503 26.675 89.4545C26.685 89.1567 26.7341 88.895 26.8203 88.6694C26.9306 88.4138 27.1031 88.1892 27.3357 87.9957C27.5693 87.8042 27.839 87.6668 28.1458 87.5836C28.4797 87.4914 28.7885 87.4884 29.0692 87.5736C29.3499 87.6578 29.5936 87.8052 29.7991 88.0157C29.7821 87.8092 29.7911 87.6187 29.8262 87.4452C29.8613 87.2708 29.9194 87.1034 30.0006 86.9409C30.128 86.7184 30.2984 86.5319 30.512 86.3795C30.7245 86.2271 30.9622 86.1158 31.2248 86.0466C31.5236 85.9644 31.8124 85.9423 32.0931 85.9814C32.3728 86.0175 32.6315 86.1148 32.8691 86.2692C33.1368 86.4486 33.3574 86.6732 33.5339 86.9469C33.7103 87.2207 33.8507 87.5565 33.96 87.9576L34.6217 90.406L27.3317 92.3781ZM28.1057 90.6446L29.9756 90.1393L29.8663 89.7342C29.7751 89.3693 29.6186 89.1156 29.3971 88.9762C29.1755 88.8359 28.9158 88.8068 28.617 88.889C28.3323 88.9652 28.1358 89.1186 28.0265 89.3522C27.9182 89.5848 27.9072 89.8776 27.9934 90.2285L28.1057 90.6446ZM31.0684 89.8435L33.0797 89.3001L32.9132 88.6875C32.8581 88.4519 32.7929 88.2644 32.7197 88.124C32.6475 87.9836 32.5583 87.8643 32.453 87.7691C32.3277 87.6538 32.1813 87.5766 32.0139 87.5365C31.8475 87.4914 31.673 87.4964 31.4905 87.5465C31.303 87.6067 31.1516 87.7019 31.0353 87.8343C30.918 87.9666 30.8418 88.125 30.8047 88.3075C30.7857 88.4378 30.7837 88.5762 30.7987 88.7196C30.8148 88.8639 30.8569 89.0635 30.9261 89.3191L31.0684 89.8435Z" fill="#B6A278"/>
<path d="M26.3159 80.5563L26.5225 82.2437L32.7607 81.4807L32.9392 82.9405L26.7009 83.7045L26.9065 85.3919L25.6472 85.5443L25.0566 80.7107L26.3159 80.5563Z" fill="#B6A278"/>
<path d="M25.2938 70.885L26.5591 70.9783L26.3716 73.5068L32.6399 73.9691L32.5316 75.4369L25 74.8834L25.2938 70.885Z" fill="#B6A278"/>
<path d="M25.6289 68.6442L26.0861 66.4946C26.1914 66.0013 26.3187 65.6203 26.4681 65.3546C26.6165 65.0889 26.817 64.8593 27.0667 64.6658C27.3404 64.4693 27.6442 64.339 27.978 64.2748C28.3119 64.2116 28.6558 64.2166 29.0107 64.2928C29.3356 64.362 29.6313 64.4793 29.896 64.6448C30.1627 64.8092 30.3743 65.0127 30.5307 65.2544C30.6991 65.515 30.8054 65.8118 30.8505 66.1457C30.8956 66.4795 30.8726 66.8525 30.7864 67.2666L30.5878 68.195L33.324 68.7785L33.0162 70.2193L25.6289 68.6442ZM27.1769 67.4681L29.3476 67.9313L29.4729 67.3448C29.5291 67.0781 29.5531 66.8776 29.5431 66.7402C29.5341 66.6029 29.5 66.4735 29.4409 66.3532C29.3717 66.2068 29.2664 66.0845 29.126 65.9853C28.9847 65.885 28.8313 65.8148 28.6628 65.7707C28.4924 65.7336 28.3259 65.7376 28.1625 65.7797C27.9991 65.8218 27.8557 65.897 27.7324 66.0013C27.6351 66.0965 27.5489 66.2169 27.4757 66.3632C27.4025 66.5096 27.3374 66.7122 27.2832 66.9708L27.1769 67.4681Z" fill="#B6A278"/>
<path d="M27.1152 62.1062L27.7379 60.503L31.9849 60.097L29.0162 57.2074L29.5987 55.7075L35.3748 61.7032L34.7923 63.2031L33.2101 61.4585L27.1152 62.1062Z" fill="#B6A278"/>
<path d="M30.7285 53.5127L33.8446 48.4104L40.2905 52.3467L39.5245 53.6029L34.1605 50.3274L32.5783 52.9172L37.9433 56.1937L37.1753 57.45L30.7285 53.5127Z" fill="#B6A278"/>
<path d="M35.8477 45.7274L39.8531 41.2878L45.4617 46.347L44.4762 47.4409L39.809 43.2299L37.7767 45.4838L42.4439 49.6938L41.4573 50.7876L35.8477 45.7274Z" fill="#B6A278"/>
</svg>
