<svg width="51" height="51" viewBox="0 0 51 51" fill="none" xmlns="http://www.w3.org/2000/svg">
<path d="M25.5 0C11.4162 0 0 11.4162 0 25.5C0 39.5838 11.4162 51 25.5 51C39.5838 51 51 39.5838 51 25.5C51 11.4162 39.5838 0 25.5 0ZM25.5 3.92308C37.3967 3.92308 47.0769 13.6033 47.0769 25.5C47.0769 37.3967 37.3967 47.0769 25.5 47.0769C13.6033 47.0769 3.92308 37.3967 3.92308 25.5C3.92308 13.6033 13.6033 3.92308 25.5 3.92308Z" fill="#1D315E"/>
<path d="M21.3404 35.2117L21.3424 35.2137L37.9978 18.5602L35.2222 15.7847L21.3404 29.6684L15.7795 24.1075L13.0059 26.8811L21.3385 35.2137L21.3404 35.2117Z" fill="#1D315E"/>
</svg>
