<svg width="59" height="49" viewBox="0 0 59 49" fill="none" xmlns="http://www.w3.org/2000/svg">
<path d="M59 19.8987C59 14.5835 56.931 9.58653 53.1728 5.82737C49.4193 2.07157 44.4256 0.00201384 39.1144 0H39.1138C39.1037 0 39.0936 0.00268492 39.0836 0.00268492C39.0715 0.00402748 39.0621 0.00134246 39.0514 0.00134246L29.472 0.364505L19.9389 0.00268492C19.9228 0.00201364 19.9074 0.00537048 19.8919 0.00537048C19.8866 0.00537048 19.8805 0.00402802 19.8758 0.00402802H19.8725C14.5647 0.00402802 9.57233 2.07157 5.81749 5.82804C-1.93916 13.588 -1.93916 26.2128 5.81749 33.9714L19.2316 47.3889C19.3114 47.4702 19.398 47.54 19.4899 47.5997C20.5295 48.5187 21.822 49 23.126 49C24.536 49 25.946 48.4623 27.0191 47.3903C27.5694 46.8398 27.9841 46.1934 28.2579 45.4892L28.5519 45.7832C28.6318 45.8645 28.719 45.9343 28.8116 45.994C29.8491 46.913 31.1417 47.393 32.445 47.393C33.8556 47.393 35.2656 46.8566 36.3381 45.7832C36.9327 45.1878 37.3696 44.4803 37.6387 43.7076C38.4883 44.2232 39.4614 44.5038 40.4788 44.5038H40.4815C41.9512 44.5038 43.3344 43.9298 44.3719 42.8914C44.5927 42.6698 44.788 42.4295 44.9665 42.1805L53.1748 33.9707C56.9303 30.2116 59 25.2146 59 19.8987ZM40.4775 41.2165C39.8849 41.2165 39.3272 40.9843 38.9084 40.5647C38.9064 40.5647 38.9064 40.5647 38.9057 40.5634L22.7253 24.3782C22.0831 23.7358 21.0436 23.7358 20.4013 24.3782C19.7597 25.0206 19.7597 26.0611 20.4013 26.7021L34.0107 40.315C34.0113 40.3163 34.0127 40.3163 34.0127 40.3177C34.4321 40.7372 34.6643 41.2957 34.6643 41.8871C34.6643 42.4812 34.4321 43.0384 34.0127 43.4579C33.1476 44.3232 31.739 44.3232 30.8739 43.4579L17.2625 29.843C16.6216 29.2006 15.5814 29.2006 14.9385 29.843C14.2976 30.4855 14.2976 31.5266 14.9385 32.1677L24.693 41.9234C24.693 41.9247 24.693 41.9247 24.693 41.9247C25.1138 42.3456 25.3447 42.9028 25.3447 43.4969C25.346 44.0883 25.1138 44.6468 24.6944 45.0663C23.8286 45.9316 22.42 45.9316 21.5549 45.065L8.14086 31.6468C1.66602 25.1703 1.66602 14.6299 8.14086 8.15201C10.6642 5.62867 13.8594 4.03774 17.3189 3.50542C16.886 4.28947 16.6371 5.19033 16.6371 6.14891C16.6357 8.82665 18.3095 10.9398 21.3127 11.9716L30.0216 14.4681L44.2927 28.7428C44.2927 28.7442 44.2934 28.7455 44.2947 28.7455C44.7141 29.1664 44.9464 29.7249 44.9464 30.3176C44.9464 30.9104 44.7155 31.4689 44.2967 31.8871C43.8773 32.3066 43.3203 32.5376 42.727 32.5376C42.1331 32.5376 41.5747 32.3053 41.1559 31.8857C41.1553 31.8857 41.1539 31.8857 41.1533 31.8844L28.1888 18.9153C27.5459 18.2729 26.5057 18.2729 25.8648 18.9153C25.2225 19.557 25.2225 20.5975 25.8648 21.2399L42.0425 37.4225C42.0445 37.4238 42.0452 37.4251 42.0472 37.4278C42.4659 37.846 42.6975 38.4032 42.6975 38.9959C42.6968 39.5887 42.4659 40.1458 42.0458 40.5654C41.6284 40.9849 41.0707 41.2152 40.4775 41.2165ZM45.5678 36.9284C45.3524 36.4014 45.0672 35.9033 44.6933 35.459C45.4067 35.1864 46.0637 34.7696 46.6194 34.2137C47.6596 33.1726 48.2328 31.7898 48.2321 30.317C48.2314 28.8462 47.6583 27.4627 46.6188 26.4229C46.6174 26.4215 46.6167 26.4215 46.6161 26.4202L34.4549 14.2559C34.4851 14.1888 34.5281 14.1311 34.5502 14.0579C34.8006 13.1846 34.2952 12.275 33.4235 12.0246L22.3005 8.83739C21.216 8.46416 19.9235 7.69487 19.9235 6.15093C19.9235 4.92853 20.9174 3.93302 22.1388 3.92967H22.1428C22.1636 3.92967 22.1851 3.92967 22.2073 3.92967L39.1312 3.28859C43.5592 3.29464 47.72 5.02117 50.8501 8.15134C53.9875 11.2889 55.7149 15.4622 55.7149 19.8987C55.7149 24.3365 53.9875 28.5085 50.8501 31.6461L45.5678 36.9284Z" fill="#1D315E"/>
</svg>
