<svg width="68" height="68" viewBox="0 0 68 68" fill="none" xmlns="http://www.w3.org/2000/svg">
<path d="M27.5242 20V31.964L38.9677 20H44.9113L31.5605 33.5832L45 50H38.9677L28.4113 36.6867L27.5242 37.5862V50H23V20H27.5242Z" fill="#1D315E"/>
<path d="M22.7752 7.10001L21.9469 6.31544L20.05 7.20479L20.1145 8.34739L19.1445 8.80215L18.9336 3.18589L19.6067 2.87085L23.7337 6.6513L22.7752 7.10001ZM20.0003 6.33962L21.3189 5.72163L19.8881 4.36543L20.0003 6.33962Z" fill="#B6A278"/>
<path d="M23.1465 1.58203L24.3542 1.25423C24.6572 1.17094 24.9071 1.134 25.1052 1.14004C25.3034 1.14609 25.4787 1.179 25.6312 1.23744C25.8031 1.31066 25.9536 1.42552 26.0826 1.58203C26.2115 1.73787 26.3042 1.91924 26.36 2.12411C26.4211 2.34847 26.4238 2.55536 26.3674 2.74277C26.3116 2.93085 26.2129 3.09475 26.0718 3.23245C26.2109 3.22036 26.3378 3.22641 26.454 3.24992C26.5709 3.2741 26.6831 3.31172 26.7926 3.36612C26.9417 3.45076 27.0666 3.56563 27.1694 3.70803C27.2709 3.85111 27.3454 4.0103 27.3931 4.18562C27.4482 4.38513 27.463 4.57925 27.4374 4.76733C27.4119 4.95542 27.3481 5.12805 27.2447 5.28725C27.1258 5.4666 26.9746 5.61505 26.7919 5.73327C26.6092 5.85082 26.3835 5.94621 26.1148 6.01942L24.4751 6.46612L23.1465 1.58203ZM24.3092 2.09993L24.6498 3.35135L24.9205 3.27813C25.1663 3.21633 25.3356 3.11154 25.4283 2.96242C25.5217 2.81397 25.5412 2.63999 25.4861 2.43982C25.435 2.24972 25.3309 2.11807 25.1751 2.04552C25.0186 1.97297 24.8231 1.96559 24.5873 2.0247L24.3092 2.09993ZM24.8493 4.08352L25.2161 5.43032L25.6258 5.31815C25.783 5.2812 25.9093 5.23687 26.0033 5.18783C26.0974 5.1388 26.1766 5.07901 26.2411 5.00915C26.3177 4.92519 26.3694 4.82712 26.3963 4.71494C26.4238 4.60343 26.4205 4.48588 26.3875 4.36363C26.3479 4.23802 26.2834 4.13659 26.1948 4.05867C26.1054 3.98142 26 3.9297 25.8777 3.90552C25.7904 3.89275 25.6984 3.89141 25.6016 3.90216C25.5049 3.91291 25.3712 3.94112 25.1999 3.98747L24.8493 4.08352Z" fill="#B6A278"/>
<path d="M31.0645 0.889092L29.9346 1.02948L30.4525 5.20826L29.4738 5.32917L28.9559 1.15039L27.8268 1.29011L27.7227 0.447099L30.9597 0.0454102L31.0645 0.889092Z" fill="#B6A278"/>
<path d="M37.516 0.19144L37.4556 1.03848L35.7608 0.918243L35.4612 5.11717L34.4785 5.04731L34.8365 0L37.516 0.19144Z" fill="#B6A278"/>
<path d="M39.0335 0.415527L40.4743 0.719145C40.8055 0.789004 41.0601 0.873641 41.2381 0.973056C41.4167 1.07314 41.5699 1.20614 41.7002 1.3734C41.8325 1.55611 41.9199 1.75964 41.9635 1.98332C42.0065 2.20634 42.0038 2.43741 41.9521 2.6752C41.9071 2.89216 41.8285 3.09032 41.719 3.269C41.6089 3.44768 41.4725 3.58941 41.3106 3.6942C41.1366 3.80705 40.9392 3.87959 40.7148 3.90982C40.4918 3.93938 40.2406 3.92527 39.9638 3.8675L39.3405 3.73517L38.9529 5.56897L37.9883 5.36544L39.0335 0.415527ZM39.8234 1.44998L39.5164 2.9056L39.9094 2.98822C40.0881 3.02584 40.2231 3.04196 40.3151 3.03524C40.4071 3.02919 40.4931 3.00568 40.5737 2.96605C40.6718 2.91903 40.7544 2.8485 40.8196 2.75446C40.8861 2.65975 40.9344 2.5563 40.9633 2.44345C40.9868 2.32993 40.9848 2.21775 40.9566 2.10826C40.9277 1.99877 40.8787 1.90339 40.8075 1.82144C40.7437 1.75561 40.6617 1.69851 40.565 1.64948C40.4656 1.59977 40.3299 1.55812 40.1579 1.52118L39.8234 1.44998Z" fill="#B6A278"/>
<path d="M43.4025 1.39795L44.4792 1.81173L44.7567 4.65714L46.6885 2.66347L47.6934 3.05038L43.6853 6.9289L42.6797 6.54199L43.8458 5.47865L43.4025 1.39795Z" fill="#B6A278"/>
<path d="M49.1668 3.80542L52.5906 5.88641L49.9635 10.211L49.1205 9.69843L51.3069 6.10002L49.5692 5.04475L47.3821 8.64248L46.5391 8.13063L49.1668 3.80542Z" fill="#B6A278"/>
<path d="M54.3925 7.22412L57.3736 9.90093L53.9921 13.6659L53.258 13.007L56.0711 9.87406L54.5584 8.51517L51.7452 11.6487L51.0117 10.9898L54.3925 7.22412Z" fill="#B6A278"/>
<path d="M59.9104 22.7976L60.695 21.9707L59.8076 20.0724L58.6657 20.1362L58.2109 19.1656L63.8265 18.958L64.1416 19.6317L60.3584 23.7554L59.9104 22.7976ZM60.6728 20.024L61.2901 21.3426L62.6463 19.9132L60.6728 20.024Z" fill="#B6A278"/>
<path d="M65.4251 23.1636L65.7536 24.3713C65.8355 24.6736 65.8745 24.9242 65.8671 25.123C65.861 25.3211 65.8288 25.4965 65.7697 25.6483C65.6965 25.8202 65.5816 25.9714 65.4251 26.1003C65.2693 26.2293 65.0879 26.3213 64.883 26.3778C64.658 26.4382 64.4518 26.4409 64.2637 26.3845C64.0756 26.3287 63.9131 26.23 63.774 26.0896C63.7861 26.2286 63.7801 26.3556 63.7565 26.4718C63.733 26.588 63.6934 26.7009 63.6403 26.8097C63.5544 26.9588 63.4402 27.0844 63.2971 27.1865C63.1547 27.2873 62.9955 27.3625 62.8202 27.4102C62.62 27.4646 62.4259 27.4794 62.2385 27.4539C62.0504 27.429 61.8777 27.3645 61.7179 27.2611C61.5399 27.1422 61.3914 26.9917 61.2732 26.809C61.1556 26.6256 61.0603 26.4006 60.9864 26.1319L60.541 24.4922L65.4251 23.1636ZM62.925 24.8657L61.5768 25.2318L61.689 25.6416C61.7259 25.7994 61.7696 25.925 61.8186 26.0191C61.8677 26.1131 61.9261 26.1924 61.998 26.2575C62.0819 26.3341 62.1793 26.3865 62.2915 26.4134C62.4044 26.4409 62.5213 26.4375 62.6422 26.404C62.7684 26.3643 62.8699 26.3005 62.9485 26.2105C63.0257 26.1212 63.0768 26.0157 63.1016 25.8935C63.1157 25.8068 63.1164 25.7134 63.105 25.6174C63.0949 25.52 63.0667 25.3863 63.0203 25.2164L62.925 24.8657ZM64.9079 24.3263L63.6571 24.6662L63.7297 24.9369C63.7908 25.1821 63.8963 25.352 64.0454 25.4454C64.1938 25.5388 64.3678 25.5576 64.568 25.5032C64.7581 25.4508 64.8897 25.3473 64.963 25.1915C65.0348 25.035 65.0429 24.8395 64.9838 24.6037L64.9079 24.3263Z" fill="#B6A278"/>
<path d="M66.1132 31.0827L65.9742 29.9536L61.7947 30.4694L61.6738 29.4901L65.8526 28.9749L65.7129 27.8444L66.5566 27.7402L66.9569 30.9779L66.1132 31.0827Z" fill="#B6A278"/>
<path d="M66.8079 37.547L65.9602 37.4859L66.0831 35.7911L61.8828 35.4875L61.954 34.5034L67.0013 34.8682L66.8079 37.547Z" fill="#B6A278"/>
<path d="M66.5812 39.0628L66.277 40.5036C66.2064 40.8348 66.1211 41.09 66.021 41.268C65.9209 41.446 65.7873 41.5992 65.6207 41.7302C65.438 41.8625 65.2338 41.9498 65.0108 41.9935C64.7871 42.0358 64.556 42.0325 64.3189 41.9821C64.1012 41.9351 63.9031 41.8571 63.7244 41.7463C63.5464 41.6368 63.4047 41.5011 63.2992 41.3392C63.1857 41.1653 63.1152 40.9664 63.0849 40.7428C63.054 40.5191 63.0695 40.2685 63.1272 39.9918L63.2596 39.3684L61.4258 38.9802L61.6307 38.0149L66.5812 39.0628ZM65.5454 39.8527L64.0912 39.5437L64.0072 39.9374C63.9696 40.1154 63.9535 40.2504 63.9609 40.3424C63.9669 40.4351 63.9904 40.5211 64.03 40.6017C64.0757 40.6998 64.1469 40.7817 64.2416 40.8482C64.3357 40.9147 64.4391 40.9624 64.5526 40.9913C64.6648 41.0155 64.777 41.0135 64.8872 40.9846C64.9966 40.9564 65.0927 40.9067 65.1747 40.8361C65.2398 40.7723 65.2969 40.6917 65.3466 40.5936C65.3957 40.4956 65.4386 40.3599 65.4756 40.1872L65.5454 39.8527Z" fill="#B6A278"/>
<path d="M65.5948 43.4336L65.1797 44.5083L62.3349 44.7844L64.3266 46.7176L63.9377 47.7225L60.0625 43.711L60.4514 42.7068L61.5127 43.8736L65.5948 43.4336Z" fill="#B6A278"/>
<path d="M63.1855 49.1953L61.1025 52.6171L56.7793 49.9866L57.2932 49.1436L60.8896 51.3328L61.9468 49.5957L58.3498 47.4059L58.863 46.5642L63.1855 49.1953Z" fill="#B6A278"/>
<path d="M59.7614 54.4168L57.0833 57.3953L53.3203 54.0111L53.9793 53.2783L57.1102 56.0935L58.4697 54.5821L55.3388 51.7662L55.9978 51.0327L59.7614 54.4168Z" fill="#B6A278"/>
<path d="M44.1962 59.9165L45.0238 60.7031L46.9214 59.8157L46.8576 58.6731L47.8282 58.2197L48.0324 63.8353L47.3587 64.1497L43.2363 60.3652L44.1962 59.9165ZM46.9704 60.6796L45.6498 61.2976L47.0792 62.6544L46.9704 60.6796Z" fill="#B6A278"/>
<path d="M43.8266 65.4321L42.6182 65.7592C42.3159 65.8411 42.0654 65.8801 41.8665 65.8734C41.669 65.866 41.4931 65.8331 41.3412 65.7753C41.1686 65.7014 41.0195 65.5866 40.8899 65.43C40.7616 65.2749 40.6695 65.0928 40.6131 64.888C40.552 64.6636 40.55 64.4567 40.6064 64.268C40.6621 64.0806 40.7609 63.9173 40.9013 63.779C40.7636 63.7904 40.6353 63.785 40.5191 63.7608C40.4029 63.738 40.29 63.699 40.1805 63.6446C40.0327 63.5586 39.9065 63.4451 39.805 63.302C39.7036 63.1596 39.6284 63.0004 39.5813 62.8244C39.5263 62.6243 39.5122 62.4301 39.5377 62.2421C39.5619 62.0553 39.627 61.8827 39.7291 61.7228C39.85 61.5441 40.0005 61.3957 40.1832 61.2781C40.3659 61.1599 40.5909 61.0652 40.861 60.992L42.5006 60.5466L43.8266 65.4321ZM42.1251 62.9292L41.7597 61.5818L41.3493 61.6933C41.1935 61.7309 41.0672 61.7739 40.9725 61.8229C40.8784 61.8719 40.7985 61.931 40.7347 62.0023C40.6568 62.0855 40.6057 62.1829 40.5775 62.2958C40.5506 62.408 40.554 62.5262 40.5876 62.6464C40.6265 62.7727 40.691 62.8748 40.7804 62.9521C40.8697 63.03 40.9752 63.081 41.0967 63.1059C41.1841 63.12 41.2774 63.12 41.3735 63.1099C41.4695 63.0998 41.6039 63.0716 41.7745 63.0246L42.1251 62.9292ZM42.6645 64.9135L42.3246 63.6621L42.0533 63.7346C41.8074 63.7957 41.6381 63.9012 41.5454 64.0497C41.4521 64.1981 41.4319 64.3728 41.4863 64.5723C41.5381 64.763 41.6415 64.894 41.7987 64.9679C41.9539 65.0404 42.15 65.0472 42.3858 64.988L42.6645 64.9135Z" fill="#B6A278"/>
<path d="M35.9062 66.1182L37.0361 65.9791L36.5215 61.7997L37.5002 61.6794L38.0141 65.8596L39.1439 65.7198L39.2481 66.5635L36.0104 66.9619L35.9062 66.1182Z" fill="#B6A278"/>
<path d="M29.4277 66.808L29.4895 65.961L31.1843 66.0853L31.4913 61.885L32.4747 61.9562L32.1066 67.0042L29.4277 66.808Z" fill="#B6A278"/>
<path d="M27.9152 66.5828L26.4757 66.2771C26.1439 66.2066 25.8893 66.1213 25.712 66.0212C25.534 65.9211 25.3801 65.7868 25.2505 65.6202C25.1188 65.4368 25.0315 65.2339 24.9885 65.0096C24.9455 64.7859 24.9496 64.5555 24.9999 64.3177C25.0463 64.1008 25.1249 63.9026 25.235 63.7246C25.3459 63.5452 25.4822 63.4042 25.6435 63.2987C25.8174 63.1859 26.0163 63.1153 26.2399 63.0844C26.463 63.0556 26.7142 63.0697 26.9903 63.1281L27.6143 63.2611L28.0039 61.428L28.9685 61.6335L27.9152 66.5828ZM27.1273 65.547L27.437 64.0927L27.044 64.0081C26.8653 63.9704 26.731 63.9543 26.6383 63.9617C26.5462 63.9678 26.4603 63.9906 26.379 64.0309C26.2809 64.0766 26.1996 64.1464 26.1325 64.2411C26.0653 64.3352 26.0176 64.4393 25.9887 64.5528C25.9645 64.6663 25.9666 64.7779 25.9948 64.8873C26.023 64.9962 26.0727 65.0929 26.1432 65.1748C26.207 65.24 26.2876 65.2978 26.3857 65.3468C26.4838 65.3958 26.6195 65.4395 26.7921 65.4758L27.1273 65.547Z" fill="#B6A278"/>
<path d="M23.5447 65.5928L22.4707 65.177L22.1966 62.3316L20.2627 64.3219L19.2578 63.9337L23.2713 60.0605L24.2762 60.4495L23.1088 61.5101L23.5447 65.5928Z" fill="#B6A278"/>
<path d="M17.7876 63.1767L14.3672 61.091L17.0017 56.7705L17.8433 57.283L15.6508 60.8794L17.3872 61.9381L19.5791 58.3423L20.4207 58.8555L17.7876 63.1767Z" fill="#B6A278"/>
<path d="M12.5662 59.7495L9.58984 57.0694L12.9767 53.3091L13.7095 53.9687L10.891 57.0969L12.4017 58.4572L15.2195 55.3296L15.9524 55.9886L12.5662 59.7495Z" fill="#B6A278"/>
<path d="M7.08219 44.1887L6.29627 45.0156L7.18227 46.9146L8.32554 46.8507L8.77828 47.8214L3.16202 48.0242L2.84766 47.3512L6.63415 43.2295L7.08219 44.1887ZM6.3171 46.9622L5.70113 45.643L4.34358 47.0711L6.3171 46.9622Z" fill="#B6A278"/>
<path d="M1.56183 43.8048L1.23471 42.597C1.15276 42.2941 1.11514 42.0442 1.12186 41.846C1.12857 41.6465 1.16149 41.4712 1.21926 41.3201C1.29315 41.1488 1.40868 40.9983 1.56452 40.8687C1.72103 40.7404 1.90173 40.6483 2.10727 40.5926C2.33096 40.5308 2.53785 40.5288 2.72593 40.5859C2.91401 40.6423 3.07724 40.741 3.21494 40.8821C3.20352 40.7437 3.20957 40.6161 3.23308 40.4999C3.25659 40.383 3.29555 40.2708 3.34996 40.162C3.43526 40.0129 3.54946 39.888 3.69253 39.7858C3.83494 39.6837 3.99414 39.6092 4.17013 39.5628C4.3703 39.5078 4.56376 39.493 4.75184 39.5192C4.93925 39.5434 5.11255 39.6085 5.27175 39.712C5.4511 39.8322 5.59888 39.9827 5.7171 40.166C5.83532 40.3494 5.92936 40.5744 6.00258 40.8431L6.44592 42.4835L1.56183 43.8048ZM2.0804 42.6433L3.33316 42.3048L3.25995 42.0334C3.19882 41.7889 3.09403 41.619 2.94558 41.5256C2.79713 41.4316 2.62315 41.4121 2.42298 41.4672C2.23221 41.5182 2.10055 41.621 2.02734 41.7775C1.95479 41.9333 1.9474 42.1295 2.00517 42.3646L2.0804 42.6433ZM4.06534 42.1066L5.41281 41.7426L5.30131 41.3321C5.26436 41.1743 5.2207 41.0487 5.17166 40.9546C5.1233 40.8606 5.06352 40.7807 4.99299 40.7169C4.90902 40.6396 4.81095 40.5879 4.69877 40.561C4.58727 40.5308 4.47039 40.5341 4.34813 40.5677C4.22252 40.608 4.12109 40.6718 4.04317 40.7605C3.96458 40.8492 3.91353 40.9553 3.88868 41.0776C3.87591 41.1649 3.87457 41.2576 3.88465 41.3536C3.89539 41.4504 3.92361 41.584 3.96995 41.7553L4.06534 42.1066Z" fill="#B6A278"/>
<path d="M0.878838 35.8845L1.01721 37.015L5.19666 36.5038L5.31623 37.4819L1.13678 37.9937L1.27448 39.1242L0.4308 39.2263L0.0351562 35.988L0.878838 35.8845Z" fill="#B6A278"/>
<path d="M0.196814 29.4053L1.04453 29.4677L0.918914 31.1618L5.11851 31.4715L5.04597 32.4549L0 32.0841L0.196814 29.4053Z" fill="#B6A278"/>
<path d="M0.421875 27.9038L0.72818 26.4637C0.798711 26.1332 0.884019 25.8779 0.984106 25.6999C1.08352 25.5219 1.21786 25.3681 1.38512 25.2384C1.5685 25.1068 1.77203 25.0195 1.99572 24.9765C2.2194 24.9342 2.4498 24.9375 2.68759 24.9886C2.90523 25.0349 3.10339 25.1135 3.28072 25.2243C3.4594 25.3345 3.60113 25.4709 3.70592 25.6327C3.81877 25.8074 3.88997 26.0062 3.9202 26.2299C3.95043 26.4536 3.93498 26.7035 3.87721 26.9809L3.74421 27.6029L5.57733 27.9938L5.37112 28.9591L0.421875 27.9038ZM1.45901 27.1159L2.91329 27.4262L2.99725 27.0333C3.03487 26.8546 3.05099 26.7203 3.04427 26.6282C3.03823 26.5362 3.01539 26.4496 2.97576 26.369C2.92941 26.2709 2.85888 26.1889 2.76484 26.1224C2.67013 26.0553 2.56735 26.0082 2.4545 25.9787C2.34031 25.9538 2.2288 25.9565 2.11931 25.9847C2.00982 26.0129 1.91377 26.0633 1.83115 26.1332C1.76599 26.197 1.70822 26.2776 1.65919 26.3757C1.61015 26.4737 1.56649 26.6094 1.53021 26.7827L1.45901 27.1159Z" fill="#B6A278"/>
<path d="M1.41797 23.5235L1.83511 22.4494L4.68052 22.1774L2.69155 20.2415L3.08182 19.2366L6.95161 23.2535L6.56134 24.2584L5.50136 23.0896L1.41797 23.5235Z" fill="#B6A278"/>
<path d="M3.83594 17.7663L5.92365 14.3479L10.2421 16.9851L9.72895 17.8267L6.13524 15.6322L5.07526 17.3673L8.66964 19.5625L8.1551 20.4041L3.83594 17.7663Z" fill="#B6A278"/>
<path d="M7.26758 12.5506L9.9511 9.57617L13.7087 12.9657L13.0484 13.6985L9.92155 10.8773L8.55997 12.3873L11.6868 15.2079L11.0259 15.9407L7.26758 12.5506Z" fill="#B6A278"/>
</svg>
